<svg width="19" height="18" viewBox="0 0 19 18" fill="none" xmlns="http://www.w3.org/2000/svg">
<path d="M12.0333 18H10.1333C9.7975 17.9997 9.47551 17.8688 9.23804 17.636C9.00056 17.4033 8.867 17.0878 8.86667 16.7586V13.6552H10.1333V16.7586H12.0333V13.6552H13.3V11.1724C13.2998 11.0078 13.2331 10.8501 13.1143 10.7337C12.9956 10.6173 12.8346 10.5519 12.6667 10.5517H7.144L5.87733 6.82759H1.9C1.73208 6.82775 1.57109 6.8932 1.45235 7.00956C1.33361 7.12593 1.26683 7.28371 1.26667 7.44828V11.1724H2.53333V16.7586H5.06667V12.4138H6.33333V16.7586C6.333 17.0878 6.19944 17.4033 5.96196 17.636C5.72449 17.8688 5.4025 17.9997 5.06667 18H2.53333C2.1975 17.9997 1.87551 17.8688 1.63804 17.636C1.40056 17.4033 1.267 17.0878 1.26667 16.7586V12.4138C0.930829 12.4135 0.608842 12.2826 0.371368 12.0498C0.133895 11.8171 0.000335335 11.5015 0 11.1724V7.44828C0.000503003 6.95458 0.200843 6.48124 0.557053 6.13214C0.913263 5.78304 1.39624 5.5867 1.9 5.58621H5.87733C6.14315 5.58604 6.40227 5.66792 6.61792 5.82022C6.83358 5.97252 6.99482 6.18751 7.07877 6.43469L8.056 9.31035H12.6667C13.1704 9.31084 13.6534 9.50718 14.0096 9.85628C14.3658 10.2054 14.5662 10.6787 14.5667 11.1724V13.6552C14.5663 13.9843 14.4328 14.2999 14.1953 14.5326C13.9578 14.7653 13.6358 14.8962 13.3 14.8966V16.7586C13.2997 17.0878 13.1661 17.4033 12.9286 17.636C12.6912 17.8688 12.3692 17.9997 12.0333 18ZM17.1 18H15.8333V11.1724H17.7333V7.44828C17.7332 7.28371 17.6664 7.12593 17.5476 7.00956C17.4289 6.8932 17.2679 6.82775 17.1 6.82759H14.5667V5.58621H17.1C17.6038 5.5867 18.0867 5.78304 18.4429 6.13214C18.7992 6.48124 18.9995 6.95458 19 7.44828V11.1724C18.9997 11.5015 18.8661 11.8171 18.6286 12.0498C18.3912 12.2826 18.0692 12.4135 17.7333 12.4138H17.1V18ZM3.8 4.96552C3.29895 4.96552 2.80916 4.81991 2.39256 4.5471C1.97595 4.27429 1.65125 3.88653 1.45951 3.43287C1.26776 2.97921 1.21759 2.48001 1.31534 1.9984C1.41309 1.51679 1.65437 1.0744 2.00866 0.727184C2.36296 0.379964 2.81435 0.143504 3.30577 0.0477066C3.79719 -0.0480912 4.30656 0.00107573 4.76946 0.18899C5.23237 0.376904 5.62802 0.695125 5.90639 1.10341C6.18476 1.5117 6.33333 1.99172 6.33333 2.48276C6.3325 3.14098 6.06532 3.772 5.59041 4.23743C5.1155 4.70286 4.47162 4.9647 3.8 4.96552V4.96552ZM3.8 1.24138C3.54948 1.24138 3.30458 1.31419 3.09628 1.45059C2.88798 1.587 2.72562 1.78087 2.62975 2.0077C2.53388 2.23454 2.5088 2.48414 2.55767 2.72494C2.60655 2.96574 2.72718 3.18694 2.90433 3.36055C3.08148 3.53416 3.30718 3.65239 3.55289 3.70029C3.79859 3.74819 4.05328 3.7236 4.28473 3.62964C4.51619 3.53569 4.71401 3.37658 4.85319 3.17243C4.99238 2.96829 5.06667 2.72828 5.06667 2.48276C5.06633 2.15363 4.93277 1.83807 4.6953 1.60533C4.45782 1.3726 4.13584 1.24171 3.8 1.24138V1.24138ZM15.2 4.96552C14.699 4.96552 14.2092 4.81991 13.7926 4.5471C13.376 4.27429 13.0512 3.88653 12.8595 3.43287C12.6678 2.97921 12.6176 2.48001 12.7153 1.9984C12.8131 1.51679 13.0544 1.0744 13.4087 0.727184C13.763 0.379964 14.2144 0.143504 14.7058 0.0477066C15.1972 -0.0480912 15.7066 0.00107573 16.1695 0.18899C16.6324 0.376904 17.028 0.695125 17.3064 1.10341C17.5848 1.5117 17.7333 1.99172 17.7333 2.48276C17.7325 3.14098 17.4653 3.772 16.9904 4.23743C16.5155 4.70286 15.8716 4.9647 15.2 4.96552V4.96552ZM15.2 1.24138C14.9495 1.24138 14.7046 1.31419 14.4963 1.45059C14.288 1.587 14.1256 1.78087 14.0298 2.0077C13.9339 2.23454 13.9088 2.48414 13.9577 2.72494C14.0065 2.96574 14.1272 3.18694 14.3043 3.36055C14.4815 3.53416 14.7072 3.65239 14.9529 3.70029C15.1986 3.74819 15.4533 3.7236 15.6847 3.62964C15.9162 3.53569 16.114 3.37658 16.2532 3.17243C16.3924 2.96829 16.4667 2.72828 16.4667 2.48276C16.4663 2.15363 16.3328 1.83807 16.0953 1.60533C15.8578 1.3726 15.5358 1.24171 15.2 1.24138V1.24138Z" fill="#011689"/>
<path d="M11.0839 8.68956C10.6454 8.68956 10.2169 8.56215 9.85234 8.32344C9.48781 8.08473 9.2037 7.74544 9.03592 7.34849C8.86815 6.95153 8.82425 6.51473 8.90978 6.09332C8.99531 5.67192 9.20643 5.28483 9.51643 4.98101C9.82644 4.6772 10.2214 4.47029 10.6514 4.38647C11.0814 4.30265 11.5271 4.34567 11.9321 4.51009C12.3372 4.67452 12.6834 4.95296 12.9269 5.31021C13.1705 5.66746 13.3005 6.08748 13.3005 6.51714C13.2999 7.0931 13.0661 7.64528 12.6505 8.05254C12.235 8.45981 11.6715 8.6889 11.0839 8.68956V8.68956ZM11.0839 5.58611C10.896 5.58611 10.7123 5.64071 10.5561 5.74301C10.3998 5.84532 10.2781 5.99073 10.2062 6.16085C10.1343 6.33097 10.1155 6.51817 10.1521 6.69878C10.1888 6.87938 10.2792 7.04527 10.4121 7.17548C10.545 7.30569 10.7142 7.39436 10.8985 7.43029C11.0828 7.46621 11.2738 7.44777 11.4474 7.37731C11.621 7.30684 11.7694 7.1875 11.8738 7.0344C11.9781 6.88129 12.0339 6.70128 12.0339 6.51714C12.0335 6.27032 11.9333 6.0337 11.7552 5.85916C11.5771 5.68463 11.3357 5.58644 11.0839 5.58611V5.58611Z" fill="#011689"/>
</svg>
