<svg width="33" height="33" viewBox="0 0 33 33" fill="none" xmlns="http://www.w3.org/2000/svg">
<path d="M32.8405 16.0291C32.8405 24.8818 25.6641 32.0582 16.8114 32.0582C7.95866 32.0582 0.782227 24.8818 0.782227 16.0291C0.782227 7.1753 7.95866 -5.34058e-05 16.8114 -5.34058e-05C25.6641 -5.34058e-05 32.8405 7.1753 32.8405 16.0291Z" fill="#272727"/>
<path d="M25.5261 14.0848C25.3602 14.1004 25.1921 14.1093 25.0252 14.1104C23.1895 14.1104 21.4786 13.1853 20.4745 11.6514V20.0259C20.4745 23.4445 17.7026 26.2163 14.284 26.2163C10.8654 26.2163 8.09473 23.4445 8.09473 20.0259C8.09473 16.6073 10.8654 13.8354 14.284 13.8354C14.4143 13.8354 14.5401 13.8477 14.667 13.8555V16.9056C14.5401 16.89 14.4154 16.8678 14.284 16.8678C12.5397 16.8678 11.1248 18.2815 11.1248 20.0259C11.1248 21.7713 12.5397 23.1851 14.284 23.1851C16.0295 23.1851 17.5702 21.8114 17.5702 20.066L17.6013 5.84166H20.519C20.7939 8.45876 22.9034 10.5026 25.5283 10.6951V14.0848" fill="white"/>
</svg>
