<svg width="19" height="18" viewBox="0 0 19 18" fill="none" xmlns="http://www.w3.org/2000/svg">
<g clip-path="url(#clip0_700_819)">
<path d="M5.0671 11.44V5.3H12.8782L13.7121 4.5H4.22266V11.44H5.0671Z" fill="#11C76F"/>
<path d="M3.16688 3.5H15.8335V11.5H16.8891V3.25C16.8891 3.05109 16.8057 2.86032 16.6572 2.71967C16.5088 2.57902 16.3074 2.5 16.0974 2.5H2.90299C2.69303 2.5 2.49167 2.57902 2.3432 2.71967C2.19474 2.86032 2.11133 3.05109 2.11133 3.25V11.5H3.16688V3.5Z" fill="#11C76F"/>
<path d="M0.527344 12.5V14.2C0.527344 14.5448 0.671917 14.8754 0.929258 15.1192C1.1866 15.363 1.53563 15.5 1.89957 15.5H17.0679C17.4318 15.5 17.7809 15.363 18.0382 15.1192C18.2955 14.8754 18.4401 14.5448 18.4401 14.2V12.5H0.527344ZM17.4162 14.2C17.4162 14.2796 17.3829 14.3559 17.3235 14.4121C17.2641 14.4684 17.1836 14.5 17.0996 14.5H1.87845C1.79447 14.5 1.71392 14.4684 1.65454 14.4121C1.59515 14.3559 1.56179 14.2796 1.56179 14.2V13.265H6.81318C6.87916 13.4125 6.9893 13.5384 7.12999 13.6273C7.27068 13.7162 7.43576 13.764 7.60484 13.765H11.3679C11.537 13.764 11.7021 13.7162 11.8428 13.6273C11.9834 13.5384 12.0936 13.4125 12.1596 13.265H17.4162V14.2Z" fill="#11C76F"/>
</g>
<defs>
<clipPath id="clip0_700_819">
<rect width="19" height="18" fill="white"/>
</clipPath>
</defs>
</svg>
