<svg width="19" height="18" viewBox="0 0 19 18" fill="none" xmlns="http://www.w3.org/2000/svg">
<path d="M7.12565 3.75H5.54232C5.12239 3.75 4.71966 3.90804 4.42273 4.18934C4.1258 4.47064 3.95898 4.85218 3.95898 5.25V14.25C3.95898 14.6478 4.1258 15.0294 4.42273 15.3107C4.71966 15.592 5.12239 15.75 5.54232 15.75H13.459C13.8789 15.75 14.2816 15.592 14.5786 15.3107C14.8755 15.0294 15.0423 14.6478 15.0423 14.25V5.25C15.0423 4.85218 14.8755 4.47064 14.5786 4.18934C14.2816 3.90804 13.8789 3.75 13.459 3.75H11.8757" stroke="#008646" stroke-width="2" stroke-linecap="round" stroke-linejoin="round"/>
<path d="M10.2917 2.25H8.70833C7.83388 2.25 7.125 2.92157 7.125 3.75C7.125 4.57843 7.83388 5.25 8.70833 5.25H10.2917C11.1661 5.25 11.875 4.57843 11.875 3.75C11.875 2.92157 11.1661 2.25 10.2917 2.25Z" stroke="#008646" stroke-width="2" stroke-linecap="round" stroke-linejoin="round"/>
<path d="M11.0846 8.25H9.10547C8.79052 8.25 8.48848 8.36853 8.26578 8.5795C8.04308 8.79048 7.91797 9.07663 7.91797 9.375C7.91797 9.67337 8.04308 9.95952 8.26578 10.1705C8.48848 10.3815 8.79052 10.5 9.10547 10.5H9.89714C10.2121 10.5 10.5141 10.6185 10.7368 10.8295C10.9595 11.0405 11.0846 11.3266 11.0846 11.625C11.0846 11.9234 10.9595 12.2095 10.7368 12.4205C10.5141 12.6315 10.2121 12.75 9.89714 12.75H7.91797M9.5013 12.75V13.5M9.5013 7.5V8.25" stroke="#008646" stroke-width="2" stroke-linecap="round" stroke-linejoin="round"/>
</svg>
