<svg width="19" height="18" viewBox="0 0 19 18" fill="none" xmlns="http://www.w3.org/2000/svg">
<path d="M3.52688 1.51826C3.63837 1.39478 3.77677 1.29564 3.93257 1.22766C4.08836 1.15969 4.25785 1.1245 4.42938 1.12451H14.5706C14.7421 1.1245 14.9116 1.15969 15.0674 1.22766C15.2232 1.29564 15.3616 1.39478 15.4731 1.51826L18.5713 4.94276C18.8479 5.24857 19 5.63803 19 6.04076V6.32764C19.0001 6.88448 18.8165 7.42744 18.4749 7.88061C18.1333 8.33378 17.6508 8.67453 17.0949 8.85522C16.5389 9.03592 15.9372 9.04753 15.3739 8.88844C14.8106 8.72935 14.3139 8.4075 13.9531 7.96789C13.6897 8.28938 13.352 8.54949 12.9661 8.7283C12.5802 8.90711 12.1562 8.99988 11.7266 8.99951C11.2969 8.99997 10.8729 8.90723 10.487 8.72841C10.101 8.54959 9.7634 8.28944 9.5 7.96789C9.2366 8.28944 8.89899 8.54959 8.51305 8.72841C8.1271 8.90723 7.70307 8.99997 7.27344 8.99951C6.84381 8.99997 6.41977 8.90723 6.03383 8.72841C5.64788 8.54959 5.31027 8.28944 5.04688 7.96789C4.6861 8.4075 4.18936 8.72935 3.62608 8.88844C3.06279 9.04753 2.46111 9.03592 1.90514 8.85522C1.34916 8.67453 0.866665 8.33378 0.525091 7.88061C0.183518 7.42744 -6.48358e-05 6.88448 1.71766e-08 6.32764V6.04076C1.49714e-05 5.63803 0.152067 5.24857 0.428688 4.94276L3.52806 1.51714L3.52688 1.51826ZM5.64062 6.32764C5.64063 6.73789 5.81265 7.13135 6.11886 7.42144C6.42508 7.71154 6.84039 7.87451 7.27344 7.87451C7.70649 7.87451 8.1218 7.71154 8.42801 7.42144C8.73422 7.13135 8.90625 6.73789 8.90625 6.32764C8.90625 6.17845 8.96881 6.03538 9.08016 5.92989C9.19151 5.8244 9.34253 5.76514 9.5 5.76514C9.65747 5.76514 9.8085 5.8244 9.91985 5.92989C10.0312 6.03538 10.0938 6.17845 10.0938 6.32764C10.0938 6.73789 10.2658 7.13135 10.572 7.42144C10.8782 7.71154 11.2935 7.87451 11.7266 7.87451C12.1596 7.87451 12.5749 7.71154 12.8811 7.42144C13.1873 7.13135 13.3594 6.73789 13.3594 6.32764C13.3594 6.17845 13.4219 6.03538 13.5333 5.92989C13.6446 5.8244 13.7957 5.76514 13.9531 5.76514C14.1106 5.76514 14.2616 5.8244 14.373 5.92989C14.4843 6.03538 14.5469 6.17845 14.5469 6.32764C14.5469 6.73789 14.7189 7.13135 15.0251 7.42144C15.3313 7.71154 15.7466 7.87451 16.1797 7.87451C16.6127 7.87451 17.028 7.71154 17.3343 7.42144C17.6405 7.13135 17.8125 6.73789 17.8125 6.32764V6.04076C17.8125 5.90669 17.762 5.77703 17.67 5.67514L14.5706 2.24951H4.42938L1.33 5.67514C1.23802 5.77703 1.18749 5.90669 1.1875 6.04076V6.32764C1.1875 6.73789 1.35953 7.13135 1.66574 7.42144C1.97195 7.71154 2.38726 7.87451 2.82031 7.87451C3.25336 7.87451 3.66867 7.71154 3.97489 7.42144C4.2811 7.13135 4.45312 6.73789 4.45312 6.32764C4.45312 6.17845 4.51568 6.03538 4.62703 5.92989C4.73838 5.8244 4.8894 5.76514 5.04688 5.76514C5.20435 5.76514 5.35537 5.8244 5.46672 5.92989C5.57807 6.03538 5.64062 6.17845 5.64062 6.32764V6.32764ZM1.78125 9.56201C1.93872 9.56201 2.08974 9.62127 2.20109 9.72676C2.31244 9.83225 2.375 9.97533 2.375 10.1245V16.8745H3.5625V11.2495C3.5625 10.9511 3.68761 10.665 3.91031 10.454C4.13301 10.243 4.43506 10.1245 4.75 10.1245H8.3125C8.62744 10.1245 8.92949 10.243 9.15219 10.454C9.37489 10.665 9.5 10.9511 9.5 11.2495V16.8745H16.625V10.1245C16.625 9.97533 16.6876 9.83225 16.7989 9.72676C16.9103 9.62127 17.0613 9.56201 17.2188 9.56201C17.3762 9.56201 17.5272 9.62127 17.6386 9.72676C17.7499 9.83225 17.8125 9.97533 17.8125 10.1245V16.8745H18.4062C18.5637 16.8745 18.7147 16.9338 18.8261 17.0393C18.9374 17.1448 19 17.2878 19 17.437C19 17.5862 18.9374 17.7293 18.8261 17.8348C18.7147 17.9402 18.5637 17.9995 18.4062 17.9995H0.59375C0.436278 17.9995 0.285255 17.9402 0.173905 17.8348C0.0625557 17.7293 1.71766e-08 17.5862 1.71766e-08 17.437C1.71766e-08 17.2878 0.0625557 17.1448 0.173905 17.0393C0.285255 16.9338 0.436278 16.8745 0.59375 16.8745H1.1875V10.1245C1.1875 9.97533 1.25006 9.83225 1.36141 9.72676C1.47276 9.62127 1.62378 9.56201 1.78125 9.56201V9.56201ZM4.75 16.8745H8.3125V11.2495H4.75V16.8745ZM10.6875 11.2495C10.6875 10.9511 10.8126 10.665 11.0353 10.454C11.258 10.243 11.5601 10.1245 11.875 10.1245H14.25C14.5649 10.1245 14.867 10.243 15.0897 10.454C15.3124 10.665 15.4375 10.9511 15.4375 11.2495V14.6245C15.4375 14.9229 15.3124 15.209 15.0897 15.42C14.867 15.631 14.5649 15.7495 14.25 15.7495H11.875C11.5601 15.7495 11.258 15.631 11.0353 15.42C10.8126 15.209 10.6875 14.9229 10.6875 14.6245V11.2495ZM14.25 11.2495H11.875V14.6245H14.25V11.2495Z" fill="#E86339"/>
</svg>
