<svg width="110" height="110" viewBox="0 0 110 110" fill="none" xmlns="http://www.w3.org/2000/svg">
<path d="M43.542 75.625L75.6253 55L43.542 34.375V75.625ZM55.0003 100.833C48.66 100.833 42.7017 99.6295 37.1253 97.2217C31.5489 94.817 26.6982 91.5521 22.5732 87.4271C18.4482 83.3021 15.1834 78.4514 12.7787 72.875C10.3709 67.2986 9.16699 61.3403 9.16699 55C9.16699 48.6597 10.3709 42.7014 12.7787 37.125C15.1834 31.5486 18.4482 26.6979 22.5732 22.5729C26.6982 18.4479 31.5489 15.1815 37.1253 12.7738C42.7017 10.369 48.66 9.16669 55.0003 9.16669C61.3406 9.16669 67.2989 10.369 72.8753 12.7738C78.4517 15.1815 83.3024 18.4479 87.4274 22.5729C91.5524 26.6979 94.8173 31.5486 97.222 37.125C99.6298 42.7014 100.834 48.6597 100.834 55C100.834 61.3403 99.6298 67.2986 97.222 72.875C94.8173 78.4514 91.5524 83.3021 87.4274 87.4271C83.3024 91.5521 78.4517 94.817 72.8753 97.2217C67.2989 99.6295 61.3406 100.833 55.0003 100.833ZM55.0003 91.6667C65.2364 91.6667 73.9066 88.1146 81.0107 81.0104C88.1149 73.9063 91.667 65.2361 91.667 55C91.667 44.7639 88.1149 36.0938 81.0107 28.9896C73.9066 21.8854 65.2364 18.3334 55.0003 18.3334C44.7642 18.3334 36.0941 21.8854 28.9899 28.9896C21.8857 36.0938 18.3337 44.7639 18.3337 55C18.3337 65.2361 21.8857 73.9063 28.9899 81.0104C36.0941 88.1146 44.7642 91.6667 55.0003 91.6667Z" fill="#383B92" fill-opacity="0.8"/>
</svg>
