<svg width="52" height="43" viewBox="0 0 52 43" fill="none" xmlns="http://www.w3.org/2000/svg">
<path d="M25.3277 11.3931L9.10858 25.826V41.4033C9.10858 41.8066 9.25687 42.1934 9.52083 42.4786C9.78479 42.7638 10.1428 42.924 10.5161 42.924L20.3741 42.8965C20.7461 42.8945 21.1023 42.7334 21.3648 42.4484C21.6272 42.1634 21.7745 41.7777 21.7745 41.3757V32.2788C21.7745 31.8754 21.9228 31.4886 22.1868 31.2034C22.4508 30.9182 22.8088 30.758 23.1821 30.758H28.8122C29.1855 30.758 29.5435 30.9182 29.8074 31.2034C30.0714 31.4886 30.2197 31.8754 30.2197 32.2788V41.3691C30.2191 41.5692 30.2551 41.7674 30.3256 41.9525C30.396 42.1376 30.4996 42.3058 30.6304 42.4475C30.7612 42.5892 30.9165 42.7016 31.0876 42.7784C31.2586 42.8551 31.442 42.8946 31.6272 42.8946L41.4817 42.924C41.855 42.924 42.213 42.7638 42.4769 42.4786C42.7409 42.1934 42.8892 41.8066 42.8892 41.4033V25.8155L26.6736 11.3931C26.483 11.2271 26.2455 11.1365 26.0006 11.1365C25.7558 11.1365 25.5183 11.2271 25.3277 11.3931ZM50.9473 21.2029L43.5929 14.6532V1.48822C43.5929 1.18573 43.4817 0.895618 43.2838 0.681721C43.0858 0.467823 42.8173 0.347656 42.5373 0.347656H37.611C37.331 0.347656 37.0625 0.467823 36.8645 0.681721C36.6665 0.895618 36.5553 1.18573 36.5553 1.48822V8.3896L28.6793 1.38842C27.9235 0.71642 26.9751 0.349 25.9962 0.349C25.0174 0.349 24.069 0.71642 23.3131 1.38842L1.04522 21.2029C0.938324 21.2984 0.849885 21.4156 0.784956 21.548C0.720027 21.6805 0.67988 21.8254 0.666809 21.9746C0.653738 22.1237 0.667999 22.2742 0.708777 22.4174C0.749555 22.5606 0.816052 22.6938 0.904466 22.8092L3.14771 25.7557C3.23588 25.8715 3.34434 25.9674 3.46686 26.0379C3.58939 26.1084 3.72358 26.1521 3.86176 26.1665C3.99993 26.1809 4.13938 26.1657 4.27211 26.1218C4.40484 26.0779 4.52826 26.0061 4.63529 25.9106L25.3277 7.49616C25.5183 7.33013 25.7558 7.23959 26.0006 7.23959C26.2455 7.23959 26.483 7.33013 26.6736 7.49616L47.3669 25.9106C47.4737 26.0061 47.5969 26.078 47.7295 26.122C47.862 26.1661 48.0013 26.1815 48.1394 26.1674C48.2774 26.1533 48.4116 26.1099 48.5341 26.0397C48.6567 25.9696 48.7652 25.874 48.8536 25.7585L51.0968 22.8121C51.1851 22.696 51.2513 22.5621 51.2916 22.4183C51.3319 22.2745 51.3455 22.1234 51.3316 21.9739C51.3177 21.8244 51.2766 21.6793 51.2107 21.547C51.1447 21.4146 51.0552 21.2977 50.9473 21.2029Z" fill="#2E3092"/>
</svg>
