<svg width="50" height="54" viewBox="0 0 50 54" fill="none" xmlns="http://www.w3.org/2000/svg">
<path d="M34.0945 10.525C34.0945 5.0975 30.0224 0.697754 24.999 0.697754C19.9756 0.697754 15.9034 5.0975 15.9034 10.525C15.9034 15.9525 19.9756 20.3523 24.999 20.3523C30.0224 20.3523 34.0945 15.9525 34.0945 10.525ZM22.8757 25.3785C17.2545 21.6605 8.14944 20.6389 3.56755 20.3574C2.02794 20.2632 0.744141 21.5305 0.744141 23.1305V45.9379C0.744141 47.4049 1.84224 48.6282 3.25395 48.707C7.39053 48.9414 15.7594 49.8003 21.5436 52.9481C22.4314 53.4312 23.484 52.773 23.484 51.733V26.5516C23.483 26.0736 23.2642 25.6354 22.8757 25.3785ZM46.4304 20.3574C41.8494 20.6379 32.7435 21.6605 27.1232 25.3785C26.7347 25.6354 26.5158 26.091 26.5158 26.569V51.7299C26.5158 52.773 27.5713 53.4323 28.4619 52.9481C34.2452 49.8033 42.6093 48.9445 46.7449 48.71C48.1566 48.6302 49.2547 47.4069 49.2547 45.94V23.1305C49.2538 21.5305 47.97 20.2632 46.4304 20.3574Z" fill="#2E3092"/>
</svg>
