<svg width="66" height="43" viewBox="0 0 66 43" fill="none" xmlns="http://www.w3.org/2000/svg">
<path d="M64.0282 10.0763L35.4007 0.573436C33.8407 0.0555996 32.1576 0.0555996 30.5986 0.573436L1.97013 10.0763C-0.445772 10.878 -0.445772 14.3299 1.97013 15.1316L6.961 16.7882C5.86594 18.2508 5.19269 20.035 5.12599 21.9888C4.13766 22.6009 3.44184 23.7053 3.44184 25.0237C3.44184 26.2191 4.02477 27.2248 4.86428 27.8679L2.24415 40.6065C2.01631 41.7142 2.7963 42.7654 3.8462 42.7654H9.60474C10.6557 42.7654 11.4356 41.7142 11.2078 40.6065L8.58768 27.8679C9.42719 27.2248 10.0101 26.2191 10.0101 25.0237C10.0101 23.7408 9.34611 22.6674 8.40295 22.0442C8.48095 20.3787 9.26914 18.9062 10.5264 17.9725L30.5976 24.6356C31.5274 24.9439 33.3111 25.3287 35.3996 24.6356L64.0282 15.1327C66.4451 14.3299 66.4451 10.8792 64.0282 10.0763ZM36.3644 28.0276C33.4363 28.999 30.9414 28.4623 29.6329 28.0276L14.7496 23.0877L13.2943 35.6688C13.2943 39.5886 22.1163 42.7654 32.9991 42.7654C43.882 42.7654 52.704 39.5886 52.704 35.6688L51.2487 23.0866L36.3644 28.0276Z" fill="#2E3092"/>
</svg>
