<svg width="28" height="33" viewBox="0 0 28 33" fill="none" xmlns="http://www.w3.org/2000/svg">
<path fill-rule="evenodd" clip-rule="evenodd" d="M28 9.68723V28.6815C28 29.7421 27.5786 30.7592 26.8284 31.5091C26.0783 32.259 25.0609 32.6803 24 32.6803H22V30.6809H24C24.5304 30.6809 25.0391 30.4703 25.4142 30.0953C25.7893 29.7203 26 29.2118 26 28.6815V9.68723H22C21.2044 9.68723 20.4413 9.37126 19.8787 8.80882C19.3161 8.24638 19 7.48355 19 6.68814V2.68934H8C7.46957 2.68934 6.96086 2.89999 6.58579 3.27495C6.21071 3.64991 6 4.15846 6 4.68874V22.6833H4V4.68874C4 3.62819 4.42143 2.61108 5.17157 1.86116C5.92172 1.11124 6.93913 0.689941 8 0.689941L19 0.689941L28 9.68723ZM3.2 24.3828H0V32.3784H1.582V29.6952H3.188C3.762 29.6952 4.25 29.5812 4.652 29.3493C5.058 29.1154 5.368 28.7995 5.578 28.4016C5.79597 27.9841 5.90663 27.5189 5.9 27.048C5.9 26.5482 5.794 26.0963 5.584 25.6944C5.37512 25.2949 5.05577 24.9639 4.664 24.7407C4.264 24.5008 3.778 24.3828 3.2 24.3828ZM4.29 27.048C4.29721 27.3114 4.23879 27.5725 4.12 27.8078C4.01343 28.0126 3.84754 28.1805 3.644 28.2896C3.41118 28.4048 3.15365 28.4611 2.894 28.4536H1.576V25.6424H2.896C3.332 25.6424 3.674 25.7624 3.92 26.0043C4.166 26.2483 4.29 26.5961 4.29 27.048ZM6.724 24.3828V32.3784H9.644C10.446 32.3784 11.112 32.2185 11.64 31.9045C12.1743 31.585 12.5915 31.102 12.83 30.527C13.09 29.9271 13.222 29.2034 13.222 28.3596C13.222 27.5199 13.092 26.8041 12.83 26.2103C12.5944 25.6419 12.1811 25.1649 11.652 24.8507C11.124 24.5388 10.454 24.3828 9.642 24.3828H6.724ZM8.306 25.6724H9.432C9.928 25.6724 10.332 25.7724 10.65 25.9763C10.9801 26.1921 11.2291 26.5114 11.358 26.8841C11.516 27.2859 11.594 27.7878 11.594 28.3896C11.6002 28.7884 11.5545 29.1863 11.458 29.5732C11.3867 29.8785 11.2533 30.1657 11.066 30.417C10.892 30.6412 10.6614 30.8151 10.398 30.9208C10.0893 31.0363 9.76149 31.0919 9.432 31.0848H8.306V25.6724ZM15.792 29.1974V32.3784H14.212V24.3828H19.308V25.6884H15.792V27.9217H19.004V29.1974H15.792Z" fill="#E6E6E6"/>
</svg>
