<svg width="28" height="28" viewBox="0 0 28 28" fill="none" xmlns="http://www.w3.org/2000/svg">
<path d="M27.0433 22.3834L22.3134 17.6535L18.6753 16.1504C19.8866 14.4277 20.5356 12.3726 20.5333 10.2666C20.5333 4.60558 15.9277 0 10.2666 0C4.60558 0 0 4.60558 0 10.2666C0 15.9277 4.60558 20.5333 10.2666 20.5333C12.3909 20.5357 14.4631 19.8755 16.1944 18.6446L17.6936 22.273L22.4233 27.0031C22.7266 27.3064 23.0867 27.5471 23.4831 27.7112C23.8794 27.8754 24.3042 27.9599 24.7332 27.96C25.1622 27.96 25.587 27.8755 25.9833 27.7113C26.3796 27.5472 26.7398 27.3066 27.0431 27.0032C27.3465 26.6999 27.5871 26.3398 27.7513 25.9434C27.9155 25.5471 28 25.1223 28 24.6933C28 24.2643 27.9155 23.8395 27.7514 23.4432C27.5872 23.0469 27.3466 22.6867 27.0433 22.3834ZM1.86666 10.2666C1.86666 5.63499 5.63499 1.86666 10.2666 1.86666C14.8983 1.86666 18.6666 5.63499 18.6666 10.2666C18.6666 14.8983 14.8983 18.6666 10.2666 18.6666C5.63499 18.6666 1.86666 14.8983 1.86666 10.2666ZM25.7232 25.6832C25.4605 25.9453 25.1045 26.0926 24.7333 26.0926C24.3621 26.0926 24.0061 25.9453 23.7433 25.6832L19.2766 21.2165L17.8828 17.8428L21.2566 19.2366L25.7234 23.7033C25.9855 23.9661 26.1327 24.3221 26.1327 24.6933C26.1327 25.0644 25.9854 25.4204 25.7232 25.6832Z" fill="white"/>
</svg>
