<svg width="25" height="27" viewBox="0 0 25 27" fill="none" xmlns="http://www.w3.org/2000/svg">
<path fill-rule="evenodd" clip-rule="evenodd" d="M24.053 7.69069V23.4998C24.053 24.3825 23.6954 25.2291 23.0588 25.8532C22.4222 26.4774 21.5588 26.8281 20.6585 26.8281H18.9612V25.1639H20.6585C21.1086 25.1639 21.5403 24.9886 21.8586 24.6765C22.1769 24.3645 22.3557 23.9412 22.3557 23.4998V7.69069H18.9612C18.2859 7.69069 17.6384 7.4277 17.1609 6.95957C16.6835 6.49145 16.4152 5.85654 16.4152 5.19451V1.86627H7.08016C6.63001 1.86627 6.1983 2.04159 5.88 2.35368C5.5617 2.66576 5.38288 3.08904 5.38288 3.53039V18.5075H3.68559V3.53039C3.68559 2.64768 4.04323 1.80113 4.67984 1.17697C5.31644 0.552801 6.17987 0.202148 7.08016 0.202148L16.4152 0.202148L24.053 7.69069ZM3.00667 19.922H0.291016V26.5768H1.63357V24.3435H2.99649C3.48361 24.3435 3.89775 24.2487 4.2389 24.0556C4.58345 23.8609 4.84653 23.598 5.02475 23.2668C5.20973 22.9193 5.30364 22.5322 5.29801 22.1402C5.29801 21.7242 5.20806 21.3481 5.02984 21.0136C4.85258 20.6811 4.58157 20.4056 4.24909 20.2198C3.90963 20.0202 3.49719 19.922 3.00667 19.922ZM3.9317 22.1402C3.93781 22.3595 3.88824 22.5768 3.78743 22.7726C3.69699 22.9431 3.5562 23.0829 3.38347 23.1737C3.18589 23.2695 2.96734 23.3164 2.74699 23.3101H1.62848V20.9704H2.74869C3.1187 20.9704 3.40893 21.0702 3.6177 21.2716C3.82646 21.4746 3.9317 21.7641 3.9317 22.1402ZM5.99729 19.922V26.5768H8.47533C9.15595 26.5768 9.72114 26.4437 10.1692 26.1824C10.6227 25.9164 10.9768 25.5144 11.1791 25.0358C11.3998 24.5366 11.5118 23.9342 11.5118 23.2319C11.5118 22.533 11.4015 21.9372 11.1791 21.443C10.9791 20.9699 10.6284 20.5729 10.1794 20.3114C9.73133 20.0518 9.16273 19.922 8.47364 19.922H5.99729ZM7.33985 20.9953H8.29542C8.71635 20.9953 9.0592 21.0785 9.32907 21.2483C9.60919 21.4279 9.82053 21.6936 9.92991 22.0038C10.064 22.3383 10.1302 22.756 10.1302 23.2569C10.1355 23.5888 10.0967 23.9199 10.0148 24.242C9.9543 24.496 9.84106 24.7351 9.6821 24.9443C9.53443 25.1309 9.33877 25.2756 9.11521 25.3636C8.85326 25.4597 8.57504 25.506 8.29542 25.5001H7.33985V20.9953ZM13.6928 23.9292V26.5768H12.3519V19.922H16.6766V21.0086H13.6928V22.8675H16.4186V23.9292H13.6928Z" fill="white"/>
</svg>
