<svg width="33" height="32" viewBox="0 0 33 32" fill="none" xmlns="http://www.w3.org/2000/svg">
<path d="M32.0627 16.0319C32.0627 7.17831 24.8855 3.8147e-05 16.0308 3.8147e-05C7.17718 3.8147e-05 0 7.17831 0 16.0319C0 24.0336 5.86257 30.6659 13.5266 31.8676V20.6665H9.45555V16.0319H13.5266V12.4993C13.5266 8.48196 15.92 6.2628 19.5821 6.2628C21.3353 6.2628 23.1707 6.57638 23.1707 6.57638V10.5213H21.1489C19.1578 10.5213 18.5372 11.757 18.5372 13.0244V16.0319H22.9821L22.2716 20.6665H18.5372V31.8676C26.2001 30.6659 32.0627 24.0336 32.0627 16.0319Z" fill="#272727"/>
<path d="M21.7092 15.6596L22.4089 11.0951H18.0312V8.1331C18.0312 6.88481 18.6424 5.66782 20.6034 5.66782H22.5946V1.78256C22.5946 1.78256 20.787 1.47373 19.0603 1.47373C15.4536 1.47373 13.0964 3.65933 13.0964 7.61586V11.0951H9.08691V15.6596H13.0964V26.6912C13.8998 26.8176 14.7237 26.8834 15.5627 26.8834C16.4028 26.8834 17.2257 26.8176 18.0312 26.6912V15.6596H21.7092Z" fill="white"/>
</svg>
