<svg width="33" height="33" viewBox="0 0 33 33" fill="none" xmlns="http://www.w3.org/2000/svg">
<path d="M32.9518 16.0291C32.9518 24.8818 25.7754 32.0582 16.9227 32.0582C8.06999 32.0582 0.893555 24.8818 0.893555 16.0291C0.893555 7.1753 8.06999 -5.34058e-05 16.9227 -5.34058e-05C25.7754 -5.34058e-05 32.9518 7.1753 32.9518 16.0291Z" fill="#272727"/>
<path d="M22.6535 9.07355C21.9541 9.07355 21.3848 9.64165 21.3848 10.3423C21.3848 11.043 21.9541 11.6123 22.6535 11.6123C23.3554 11.6123 23.9235 11.043 23.9235 10.3423C23.9235 9.64165 23.3554 9.07355 22.6535 9.07355Z" fill="white"/>
<path d="M17.0104 19.4458C15.1281 19.4458 13.5968 17.9132 13.5968 16.0309C13.5968 14.1486 15.1281 12.6173 17.0104 12.6173C18.8939 12.6173 20.4253 14.1486 20.4253 16.0309C20.4253 17.9132 18.8939 19.4458 17.0104 19.4458ZM17.0104 10.7009C14.0714 10.7009 11.6816 13.092 11.6816 16.0309C11.6816 18.9699 14.0714 21.361 17.0104 21.361C19.9506 21.361 22.3404 18.9699 22.3404 16.0309C22.3404 13.092 19.9506 10.7009 17.0104 10.7009Z" fill="white"/>
<path d="M12.6028 7.24587C10.1411 7.24587 8.13887 9.24809 8.13887 11.7111V20.3512C8.13887 22.8142 10.1411 24.8165 12.6028 24.8165H21.2442C23.706 24.8165 25.7095 22.8142 25.7095 20.3512V11.7111C25.7095 9.24809 23.706 7.24587 21.2442 7.24587H12.6028ZM21.2442 26.8528H12.6028C9.01877 26.8528 6.10254 23.9366 6.10254 20.3512V11.7111C6.10254 8.12579 9.01877 5.20956 12.6028 5.20956H21.2442C24.8295 5.20956 27.7445 8.12579 27.7445 11.7111V20.3512C27.7445 23.9366 24.8295 26.8528 21.2442 26.8528Z" fill="white"/>
</svg>
