<svg width="30" height="29" viewBox="0 0 30 29" fill="none" xmlns="http://www.w3.org/2000/svg">
<path d="M29.4741 14.3662C29.4741 22.3011 23.0423 28.733 15.1081 28.733C7.174 28.733 0.742188 22.3011 0.742188 14.3662C0.742188 6.43204 7.174 0.000123978 15.1081 0.000123978C23.0423 0.000123978 29.4741 6.43204 29.4741 14.3662Z" fill="#272727"/>
<path d="M15.4971 17.006L9.93033 19.7597C9.71043 19.8785 8.96913 19.7207 8.96913 19.4722V13.8169C8.96913 13.5657 9.71597 13.408 9.93449 13.5333L15.2647 16.4334C15.4888 16.5603 15.7239 16.8829 15.4971 17.006ZM22.7995 13.6835C22.7995 11.0022 20.6254 8.82777 17.9451 8.82777H5.52676C2.84505 8.82777 0.670898 11.0022 0.670898 13.6835V19.4614C0.670898 22.1438 2.84505 24.3184 5.52676 24.3184H17.9451C20.6254 24.3184 22.7995 22.1438 22.7995 19.4614V13.6835Z" fill="white"/>
</svg>
