<svg width="50" height="48" viewBox="0 0 50 48" fill="none" xmlns="http://www.w3.org/2000/svg">
<path d="M13.8889 24.0001C13.8889 17.372 18.8629 12.0001 25 12.0001C31.1372 12.0001 36.1111 17.372 36.1111 24.0001C36.1111 30.6282 31.1372 36.0001 25 36.0001C18.8629 36.0001 13.8889 30.6282 13.8889 24.0001ZM25 31.5001C28.8368 31.5001 31.9445 28.1439 31.9445 24.0001C31.9445 19.8564 28.8368 16.5001 25 16.5001H24.7483C24.9392 16.9782 25 17.4845 25 18.0001C25 21.3095 22.5087 24.0001 19.4445 24.0001C18.967 24.0001 18.4983 23.9345 18.0556 23.7282V23.9157C18.0556 28.1439 21.1632 31.5001 25 31.5001ZM8.28299 10.5564C12.3698 6.45387 17.9861 3.00012 25 3.00012C32.0139 3.00012 37.6302 6.45387 41.7188 10.5564C45.7813 14.6251 48.4983 19.4157 49.783 22.847C50.0695 23.5876 50.0695 24.4126 49.783 25.1532C48.4983 28.5001 45.7813 33.2907 41.7188 37.4439C37.6302 41.5501 32.0139 45.0001 25 45.0001C17.9861 45.0001 12.3698 41.5501 8.28299 37.4439C4.22049 33.2907 1.50522 28.5001 0.213636 25.1532C0.0726096 24.7879 0 24.396 0 24.0001C0 23.6043 0.0726096 23.2124 0.213636 22.847C1.50522 19.4157 4.22049 14.6251 8.28299 10.5564ZM25 7.50012C19.3403 7.50012 14.6875 10.2751 11.1198 13.847C7.77779 17.2032 5.47049 21.1032 4.29167 24.0001C5.47049 26.8126 7.77779 30.797 11.1198 34.1532C14.6875 37.7251 19.3403 40.5001 25 40.5001C30.6597 40.5001 35.3125 37.7251 38.8802 34.1532C42.2222 30.797 44.4531 26.8126 45.7118 24.0001C44.4531 21.1032 42.2222 17.2032 38.8802 13.847C35.3125 10.2751 30.6597 7.50012 25 7.50012Z" fill="#2E3092"/>
</svg>
