<svg width="50" height="48" viewBox="0 0 50 48" fill="none" xmlns="http://www.w3.org/2000/svg">
<path d="M34.6981 0L33.4336 1.32897C30.6018 4.31776 28.2674 5.65413 26.3243 6.5284C24.3812 7.40083 22.7485 7.66144 21.1447 8.83885C19.4348 10.0957 16.95 12.506 15.9033 16.809C13.6595 17.2784 12.0171 18.1028 10.7217 19.1767C9.44175 20.2377 8.47791 21.4446 7.29046 22.7588C7.28082 22.7736 7.29624 22.8013 7.29046 22.8161C5.5864 24.6941 4.09631 26.7162 1.2048 27.7845L0 28.2466V48H36.7472C38.8542 47.8909 40.3154 46.4917 41.204 45.111C42.0908 43.7321 42.5823 42.2387 42.831 41.0114C43.471 37.8839 44.6372 28.8806 44.6372 28.8806L44.6989 28.7087V28.5349C44.6372 27.2855 44.1013 26.2245 43.4324 25.2412L45.601 19.0621L49.0362 14.0937L50 12.7648L48.7335 11.6687L36.0841 1.15522L34.6981 0ZM34.8196 5.08298L44.8782 13.4597L42.2276 17.2119L42.0483 17.3875L41.9867 17.6758L40.2402 22.6424C39.3284 22.282 38.3896 22.0287 37.3487 22.0657H37.2272L25.0598 22.123H23.1321V29.2854C22.8622 31.3001 21.694 32.0801 20.2406 32.6365C19.7587 32.8231 19.6989 32.7215 19.2767 32.8083V22.0675C18.9606 15.2157 21.5051 13.2435 23.4945 11.7851C24.0439 11.3803 25.6535 10.9127 27.9513 9.87947C29.8712 9.01259 32.2577 7.45997 34.8196 5.08483V5.08298ZM15.5428 20.9678C15.5351 21.3873 15.3983 21.6831 15.4214 22.123V36.9099H17.3491C17.3491 36.9099 19.4117 36.8877 21.6266 36.043C23.8395 35.1983 26.5132 33.2205 26.9874 29.7475V25.8197L37.3487 25.7624H37.4084C38.2546 25.718 39.0847 25.9968 39.717 26.538C40.3492 27.0791 40.7321 27.8383 40.7819 28.6495C40.7742 28.6791 40.6855 29.3649 40.6623 29.5164H32.7705V33.2131H40.1804C39.9761 34.6419 39.7891 35.5384 39.5771 36.9099H32.7705V40.6066H38.9756C38.7478 41.5008 38.382 42.3574 37.8904 43.1481C37.3641 43.9706 36.9111 44.2811 36.5063 44.3033H3.85535V30.4979C6.98011 28.9083 8.9232 26.6219 10.18 25.243C11.4832 23.8124 12.3776 22.7293 13.2528 22.0084C13.8253 21.5389 14.7216 21.2709 15.5428 20.9678Z" fill="#2E3092"/>
</svg>
