<svg width="50" height="48" viewBox="0 0 50 48" fill="none" xmlns="http://www.w3.org/2000/svg">
<g clip-path="url(#clip0_638_1558)">
<path d="M23.5187 46.574V40.67C23.5187 40.2918 23.6752 39.9291 23.9538 39.6617C24.2324 39.3942 24.6102 39.244 25.0042 39.244C25.3981 39.244 25.7759 39.3942 26.0545 39.6617C26.3331 39.9291 26.4896 40.2918 26.4896 40.67V46.574C26.4896 46.9522 26.3331 47.3149 26.0545 47.5823C25.7759 47.8498 25.3981 48 25.0042 48C24.6102 48 24.2324 47.8498 23.9538 47.5823C23.6752 47.3149 23.5187 46.9522 23.5187 46.574ZM40.5812 40.966L36.2333 36.794C36.0896 36.6629 35.9746 36.5055 35.8952 36.3311C35.8158 36.1567 35.7735 35.9687 35.771 35.7784C35.7684 35.5881 35.8056 35.3992 35.8803 35.2228C35.955 35.0465 36.0657 34.8863 36.2059 34.7517C36.3462 34.6171 36.513 34.5108 36.6967 34.4391C36.8804 34.3674 37.0771 34.3317 37.2754 34.3342C37.4737 34.3366 37.6694 34.3771 37.8511 34.4534C38.0328 34.5296 38.1968 34.64 38.3333 34.778L42.6771 38.956C42.9205 39.2295 43.0472 39.5812 43.0319 39.9406C43.0165 40.3001 42.8603 40.6406 42.5944 40.8941C42.3285 41.1476 41.9727 41.2952 41.5982 41.3074C41.2237 41.3197 40.8582 41.1956 40.575 40.96L40.5771 40.962L40.5812 40.966ZM7.32708 40.966C7.18851 40.834 7.07852 40.677 7.00346 40.504C6.9284 40.331 6.88976 40.1454 6.88976 39.958C6.88976 39.7706 6.9284 39.585 7.00346 39.412C7.07852 39.239 7.18851 39.082 7.32708 38.95L11.675 34.776C11.8116 34.638 11.9755 34.5276 12.1572 34.4514C12.3389 34.3751 12.5346 34.3346 12.7329 34.3322C12.9312 34.3297 13.128 34.3654 13.3116 34.4371C13.4953 34.5088 13.6622 34.6151 13.8024 34.7497C13.9426 34.8843 14.0533 35.0445 14.128 35.2208C14.2027 35.3972 14.2399 35.5861 14.2373 35.7764C14.2348 35.9667 14.1926 36.1547 14.1132 36.3291C14.0338 36.5035 13.9188 36.6609 13.775 36.792L9.42708 40.964C9.28958 41.097 9.12601 41.2026 8.9458 41.2747C8.76559 41.3467 8.5723 41.3838 8.37708 41.3838C8.18186 41.3838 7.98858 41.3467 7.80837 41.2747C7.62815 41.2026 7.46458 41.097 7.32708 40.964V40.966ZM13.1667 23.996C13.1667 20.9816 14.414 18.0906 16.6344 15.959C18.8548 13.8275 21.8662 12.63 25.0063 12.63C28.1463 12.63 31.1577 13.8275 33.3781 15.959C35.5984 18.0906 36.8458 20.9816 36.8458 23.996C36.8458 27.0105 35.5984 29.9014 33.3781 32.033C31.1577 34.1645 28.1463 35.362 25.0063 35.362C21.8662 35.362 18.8548 34.1645 16.6344 32.033C14.414 29.9014 13.1667 27.0105 13.1667 23.996ZM16.1354 23.996C16.1098 25.1301 16.3204 26.2578 16.7548 27.3127C17.1892 28.3677 17.8387 29.3287 18.6651 30.1395C19.4916 30.9503 20.4784 31.5945 21.5676 32.0343C22.6569 32.4741 23.8267 32.7006 25.0083 32.7006C26.19 32.7006 27.3598 32.4741 28.449 32.0343C29.5383 31.5945 30.5251 30.9503 31.3515 30.1395C32.178 29.3287 32.8275 28.3677 33.2619 27.3127C33.6963 26.2578 33.9069 25.1301 33.8812 23.996C33.831 21.7688 32.8741 19.6492 31.2155 18.0911C29.557 16.5331 27.3288 15.6606 25.0083 15.6606C22.6878 15.6606 20.4596 16.5331 18.8011 18.0911C17.1426 19.6492 16.1857 21.7688 16.1354 23.996ZM42.3667 25.422C42.1716 25.422 41.9784 25.3851 41.7982 25.3135C41.618 25.2418 41.4543 25.1367 41.3163 25.0043C41.1784 24.8719 41.069 24.7147 40.9943 24.5417C40.9197 24.3687 40.8812 24.1833 40.8812 23.996C40.8812 23.8087 40.9197 23.6233 40.9943 23.4503C41.069 23.2773 41.1784 23.1201 41.3163 22.9877C41.4543 22.8552 41.618 22.7502 41.7982 22.6785C41.9784 22.6069 42.1716 22.57 42.3667 22.57H48.5167C48.7117 22.57 48.9049 22.6069 49.0851 22.6785C49.2653 22.7502 49.4291 22.8552 49.567 22.9877C49.7049 23.1201 49.8144 23.2773 49.889 23.4503C49.9637 23.6233 50.0021 23.8087 50.0021 23.996C50.0021 24.1833 49.9637 24.3687 49.889 24.5417C49.8144 24.7147 49.7049 24.8719 49.567 25.0043C49.4291 25.1367 49.2653 25.2418 49.0851 25.3135C48.9049 25.3851 48.7117 25.422 48.5167 25.422H42.3667ZM1.48542 25.422C1.29035 25.422 1.09719 25.3851 0.916972 25.3135C0.736753 25.2418 0.573002 25.1367 0.435068 25.0043C0.297135 24.8719 0.18772 24.7147 0.113071 24.5417C0.0384214 24.3687 0 24.1833 0 23.996C0 23.8087 0.0384214 23.6233 0.113071 23.4503C0.18772 23.2773 0.297135 23.1201 0.435068 22.9877C0.573002 22.8552 0.736753 22.7502 0.916972 22.6785C1.09719 22.6069 1.29035 22.57 1.48542 22.57H7.6375C7.83257 22.57 8.02573 22.6069 8.20594 22.6785C8.38616 22.7502 8.54991 22.8552 8.68785 22.9877C8.82578 23.1201 8.9352 23.2773 9.00985 23.4503C9.08449 23.6233 9.12292 23.8087 9.12292 23.996C9.12292 24.1833 9.08449 24.3687 9.00985 24.5417C8.9352 24.7147 8.82578 24.8719 8.68785 25.0043C8.54991 25.1367 8.38616 25.2418 8.20594 25.3135C8.02573 25.3851 7.83257 25.422 7.6375 25.422H1.48542ZM36.2292 13.216C36.0906 13.084 35.9806 12.927 35.9055 12.754C35.8305 12.581 35.7918 12.3954 35.7918 12.208C35.7918 12.0206 35.8305 11.835 35.9055 11.662C35.9806 11.489 36.0906 11.332 36.2292 11.2L40.5771 7.026C40.7136 6.88798 40.8776 6.7776 41.0593 6.70137C41.241 6.62514 41.4367 6.58461 41.635 6.58216C41.8333 6.57971 42.03 6.61539 42.2137 6.6871C42.3974 6.75881 42.5643 6.8651 42.7045 6.9997C42.8447 7.13431 42.9554 7.29449 43.0301 7.47082C43.1048 7.64715 43.142 7.83606 43.1394 8.0264C43.1369 8.21674 43.0946 8.40466 43.0152 8.57908C42.9358 8.75351 42.8209 8.91091 42.6771 9.042L38.3292 13.216C38.1917 13.349 38.0281 13.4546 37.8479 13.5267C37.6677 13.5987 37.4744 13.6358 37.2792 13.6358C37.0839 13.6358 36.8907 13.5987 36.7104 13.5267C36.5302 13.4546 36.3667 13.349 36.2292 13.216ZM11.6708 13.216L7.32708 9.046C7.18331 8.91491 7.06833 8.75751 6.98893 8.58309C6.90952 8.40866 6.8673 8.22074 6.86475 8.0304C6.86219 7.84006 6.89936 7.65115 6.97406 7.47482C7.04876 7.29849 7.15948 7.13831 7.29969 7.0037C7.4399 6.8691 7.60676 6.76281 7.79044 6.6911C7.97412 6.61939 8.17089 6.58371 8.36916 6.58616C8.56743 6.58861 8.76319 6.62914 8.94488 6.70537C9.12657 6.7816 9.29053 6.89198 9.42708 7.03L13.775 11.204C13.9188 11.3351 14.0338 11.4925 14.1132 11.6669C14.1926 11.8413 14.2348 12.0293 14.2373 12.2196C14.2399 12.4099 14.2027 12.5988 14.128 12.7752C14.0533 12.9515 13.9426 13.1117 13.8024 13.2463C13.6622 13.3809 13.4953 13.4872 13.3116 13.5589C13.128 13.6306 12.9312 13.6663 12.7329 13.6638C12.5346 13.6614 12.3389 13.6209 12.1572 13.5446C11.9755 13.4684 11.8116 13.358 11.675 13.22L11.6708 13.216ZM23.5146 7.328V1.426C23.5146 1.0478 23.6711 0.685093 23.9496 0.417666C24.2282 0.150239 24.606 0 25 0C25.394 0 25.7718 0.150239 26.0503 0.417666C26.3289 0.685093 26.4854 1.0478 26.4854 1.426V7.33C26.4854 7.7082 26.3289 8.07091 26.0503 8.33833C25.7718 8.60576 25.394 8.756 25 8.756C24.606 8.756 24.2282 8.60576 23.9496 8.33833C23.6711 8.07091 23.5146 7.7082 23.5146 7.33V7.328Z" fill="#2E3092"/>
</g>
<defs>
<clipPath id="clip0_638_1558">
<rect width="50" height="48" fill="white"/>
</clipPath>
</defs>
</svg>
