<svg width="50" height="48" viewBox="0 0 50 48" fill="none" xmlns="http://www.w3.org/2000/svg">
<path d="M19.1176 7.05882C19.1176 5.93555 19.5825 4.85829 20.4098 4.06402C21.2372 3.26975 22.3593 2.82353 23.5294 2.82353C24.6995 2.82353 25.8216 3.26975 26.649 4.06402C27.4764 4.85829 27.9412 5.93555 27.9412 7.05882C27.9412 8.18209 27.4764 9.25936 26.649 10.0536C25.8216 10.8479 24.6995 11.2941 23.5294 11.2941C22.3593 11.2941 21.2372 10.8479 20.4098 10.0536C19.5825 9.25936 19.1176 8.18209 19.1176 7.05882ZM23.5294 0C21.5793 0 19.709 0.743695 18.3301 2.06748C16.9512 3.39127 16.1765 5.18671 16.1765 7.05882C16.1765 8.93094 16.9512 10.7264 18.3301 12.0502C19.709 13.374 21.5793 14.1176 23.5294 14.1176C25.4795 14.1176 27.3498 13.374 28.7287 12.0502C30.1077 10.7264 30.8824 8.93094 30.8824 7.05882C30.8824 5.18671 30.1077 3.39127 28.7287 2.06748C27.3498 0.743695 25.4795 0 23.5294 0ZM36.7647 8.47059C36.7647 7.72174 37.0746 7.00357 37.6262 6.47405C38.1777 5.94454 38.9258 5.64706 39.7059 5.64706C40.4859 5.64706 41.234 5.94454 41.7856 6.47405C42.3372 7.00357 42.6471 7.72174 42.6471 8.47059C42.6471 9.21943 42.3372 9.93761 41.7856 10.4671C41.234 10.9966 40.4859 11.2941 39.7059 11.2941C38.9258 11.2941 38.1777 10.9966 37.6262 10.4671C37.0746 9.93761 36.7647 9.21943 36.7647 8.47059ZM39.7059 2.82353C38.1458 2.82353 36.6496 3.41849 35.5464 4.47751C34.4433 5.53654 33.8235 6.9729 33.8235 8.47059C33.8235 9.96828 34.4433 11.4046 35.5464 12.4637C36.6496 13.5227 38.1458 14.1176 39.7059 14.1176C41.266 14.1176 42.7622 13.5227 43.8653 12.4637C44.9685 11.4046 45.5882 9.96828 45.5882 8.47059C45.5882 6.9729 44.9685 5.53654 43.8653 4.47751C42.7622 3.41849 41.266 2.82353 39.7059 2.82353ZM7.35294 5.64706C6.57289 5.64706 5.82479 5.94454 5.27322 6.47405C4.72164 7.00357 4.41176 7.72174 4.41176 8.47059C4.41176 9.21943 4.72164 9.93761 5.27322 10.4671C5.82479 10.9966 6.57289 11.2941 7.35294 11.2941C8.13299 11.2941 8.88109 10.9966 9.43267 10.4671C9.98424 9.93761 10.2941 9.21943 10.2941 8.47059C10.2941 7.72174 9.98424 7.00357 9.43267 6.47405C8.88109 5.94454 8.13299 5.64706 7.35294 5.64706ZM1.47059 8.47059C1.47059 6.9729 2.09033 5.53654 3.19349 4.47751C4.29664 3.41849 5.79284 2.82353 7.35294 2.82353C8.91304 2.82353 10.4092 3.41849 11.5124 4.47751C12.6155 5.53654 13.2353 6.9729 13.2353 8.47059C13.2353 9.96828 12.6155 11.4046 11.5124 12.4637C10.4092 13.5227 8.91304 14.1176 7.35294 14.1176C5.79284 14.1176 4.29664 13.5227 3.19349 12.4637C2.09033 11.4046 1.47059 9.96828 1.47059 8.47059ZM8.82353 36.7059C8.92059 36.7059 9.02059 36.7059 9.11765 36.7002C9.31765 37.6546 9.62059 38.5779 10.0118 39.4532C8.76406 39.616 7.49451 39.5205 6.28843 39.1732C5.08235 38.8259 3.96766 38.2348 3.01928 37.4396C2.07089 36.6445 1.31078 35.6636 0.790005 34.563C0.269231 33.4625 -0.000137253 32.2676 5.24649e-08 31.0588V20.4706C5.24649e-08 18.5224 1.64706 16.9412 3.67647 16.9412H9.93824C9.34894 17.7857 8.98067 18.7543 8.86471 19.7647H3.67647C3.48146 19.7647 3.29443 19.8391 3.15654 19.9715C3.01864 20.1038 2.94118 20.2834 2.94118 20.4706V31.0588C2.94118 32.5565 3.56092 33.9929 4.66408 35.0519C5.76723 36.1109 7.26343 36.7059 8.82353 36.7059ZM44.1176 21.1765C45.592 22.2376 46.5975 23.7914 46.9353 25.5304L47.0588 25.5529V20.4706C47.0588 18.5224 45.4118 16.9412 43.3824 16.9412H37.1206C37.6971 17.7656 38.0765 18.7285 38.1941 19.7647H43.3824C43.5774 19.7647 43.7644 19.8391 43.9023 19.9715C44.0402 20.1038 44.1176 20.2834 44.1176 20.4706V21.1765ZM39.7059 22.5882H33.8235C32.6535 22.5882 31.5313 23.0345 30.7039 23.8287C29.8766 24.623 29.4118 25.7003 29.4118 26.8235V28.2353H27.9412C26.7711 28.2353 25.649 28.6815 24.8216 29.4758C23.9942 30.2701 23.5294 31.3473 23.5294 32.4706V36.7059H29.4118V35.2941C29.4118 34.9197 29.5667 34.5606 29.8425 34.2958C30.1183 34.0311 30.4923 33.8824 30.8824 33.8824C31.2724 33.8824 31.6464 34.0311 31.9222 34.2958C32.198 34.5606 32.3529 34.9197 32.3529 35.2941V36.7059H41.1765V35.2941C41.1765 34.9197 41.3314 34.5606 41.6072 34.2958C41.883 34.0311 42.257 33.8824 42.6471 33.8824C43.0371 33.8824 43.4111 34.0311 43.6869 34.2958C43.9627 34.5606 44.1176 34.9197 44.1176 35.2941V36.7059H50V32.4706C50 31.3473 49.5352 30.2701 48.7078 29.4758C47.8805 28.6815 46.7583 28.2353 45.5882 28.2353H44.1176V26.8235C44.1176 25.7003 43.6528 24.623 42.8255 23.8287C41.9981 23.0345 40.876 22.5882 39.7059 22.5882ZM15.4412 19.7647C15.2462 19.7647 15.0591 19.8391 14.9212 19.9715C14.7833 20.1038 14.7059 20.2834 14.7059 20.4706V33.8824C14.7059 37.5699 17.1618 40.7096 20.5882 41.8729V43.7647C20.5882 44.1318 20.6176 44.4904 20.6735 44.8405C18.1289 44.2282 15.8703 42.8174 14.2563 40.8321C12.6422 38.8468 11.7653 36.4007 11.7647 33.8824V20.4706C11.7647 18.5224 13.4118 16.9412 15.4412 16.9412H31.6176C33.3971 16.9412 34.8824 18.1553 35.2206 19.7647H15.4412ZM32.3529 28.2353V26.8235C32.3529 26.4491 32.5079 26.09 32.7837 25.8253C33.0595 25.5605 33.4335 25.4118 33.8235 25.4118H39.7059C40.0959 25.4118 40.47 25.5605 40.7457 25.8253C41.0215 26.09 41.1765 26.4491 41.1765 26.8235V28.2353H32.3529ZM44.1176 39.5294V40.9412C44.1176 41.3156 43.9627 41.6747 43.6869 41.9394C43.4111 42.2042 43.0371 42.3529 42.6471 42.3529C42.257 42.3529 41.883 42.2042 41.6072 41.9394C41.3314 41.6747 41.1765 41.3156 41.1765 40.9412V39.5294H32.3529V40.9412C32.3529 41.3156 32.198 41.6747 31.9222 41.9394C31.6464 42.2042 31.2724 42.3529 30.8824 42.3529C30.4923 42.3529 30.1183 42.2042 29.8425 41.9394C29.5667 41.6747 29.4118 41.3156 29.4118 40.9412V39.5294H23.5294V43.7647C23.5294 44.888 23.9942 45.9652 24.8216 46.7595C25.649 47.5538 26.7711 48 27.9412 48H45.5882C46.7583 48 47.8805 47.5538 48.7078 46.7595C49.5352 45.9652 50 44.888 50 43.7647V39.5294H44.1176Z" fill="#2E3092"/>
</svg>
