<svg width="72" height="72" viewBox="0 0 72 72" fill="none" xmlns="http://www.w3.org/2000/svg">
<path d="M42 29.7V24.6C43.65 23.9 45.338 23.375 47.064 23.025C48.788 22.675 50.6 22.5 52.5 22.5C53.8 22.5 55.075 22.6 56.325 22.8C57.575 23 58.8 23.25 60 23.55V28.35C58.8 27.9 57.588 27.563 56.364 27.339C55.138 27.113 53.85 27 52.5 27C50.6 27 48.775 27.238 47.025 27.714C45.275 28.188 43.6 28.85 42 29.7ZM42 46.2V41.1C43.65 40.4 45.338 39.875 47.064 39.525C48.788 39.175 50.6 39 52.5 39C53.8 39 55.075 39.1 56.325 39.3C57.575 39.5 58.8 39.75 60 40.05V44.85C58.8 44.4 57.588 44.063 56.364 43.839C55.138 43.613 53.85 43.5 52.5 43.5C50.6 43.5 48.775 43.725 47.025 44.175C45.275 44.625 43.6 45.3 42 46.2ZM42 37.95V32.85C43.65 32.15 45.338 31.625 47.064 31.275C48.788 30.925 50.6 30.75 52.5 30.75C53.8 30.75 55.075 30.85 56.325 31.05C57.575 31.25 58.8 31.5 60 31.8V36.6C58.8 36.15 57.588 35.813 56.364 35.589C55.138 35.363 53.85 35.25 52.5 35.25C50.6 35.25 48.775 35.488 47.025 35.964C45.275 36.438 43.6 37.1 42 37.95ZM19.5 48C21.85 48 24.138 48.262 26.364 48.786C28.588 49.312 30.8 50.1 33 51.15V21.6C30.95 20.4 28.775 19.5 26.475 18.9C24.175 18.3 21.85 18 19.5 18C17.7 18 15.913 18.175 14.139 18.525C12.363 18.875 10.65 19.4 9 20.1V49.8C10.75 49.2 12.488 48.75 14.214 48.45C15.938 48.15 17.7 48 19.5 48ZM39 51.15C41.2 50.1 43.413 49.312 45.639 48.786C47.863 48.262 50.15 48 52.5 48C54.3 48 56.063 48.15 57.789 48.45C59.513 48.75 61.25 49.2 63 49.8V20.1C61.35 19.4 59.638 18.875 57.864 18.525C56.088 18.175 54.3 18 52.5 18C50.15 18 47.825 18.3 45.525 18.9C43.225 19.5 41.05 20.4 39 21.6V51.15ZM36 60C33.6 58.1 31 56.625 28.2 55.575C25.4 54.525 22.5 54 19.5 54C17.4 54 15.338 54.275 13.314 54.825C11.288 55.375 9.35 56.15 7.5 57.15C6.45 57.7 5.438 57.675 4.464 57.075C3.488 56.475 3 55.6 3 54.45V18.3C3 17.75 3.138 17.225 3.414 16.725C3.688 16.225 4.1 15.85 4.65 15.6C6.95 14.4 9.35 13.5 11.85 12.9C14.35 12.3 16.9 12 19.5 12C22.4 12 25.238 12.375 28.014 13.125C30.788 13.875 33.45 15 36 16.5C38.55 15 41.213 13.875 43.989 13.125C46.763 12.375 49.6 12 52.5 12C55.1 12 57.65 12.3 60.15 12.9C62.65 13.5 65.05 14.4 67.35 15.6C67.9 15.85 68.313 16.225 68.589 16.725C68.863 17.225 69 17.75 69 18.3V54.45C69 55.6 68.513 56.475 67.539 57.075C66.563 57.675 65.55 57.7 64.5 57.15C62.65 56.15 60.712 55.375 58.686 54.825C56.662 54.275 54.6 54 52.5 54C49.5 54 46.6 54.525 43.8 55.575C41 56.625 38.4 58.1 36 60Z" fill="#2E3092"/>
</svg>
