<svg width="28" height="33" viewBox="0 0 28 33" fill="none" xmlns="http://www.w3.org/2000/svg">
<path fill-rule="evenodd" clip-rule="evenodd" d="M28 9.73997V28.7343C28 29.7948 27.5786 30.8119 26.8284 31.5618C26.0783 32.3117 25.0609 32.733 24 32.733H22V30.7337H24C24.5304 30.7337 25.0391 30.523 25.4142 30.148C25.7893 29.7731 26 29.2645 26 28.7343V9.73997H22C21.2044 9.73997 20.4413 9.42399 19.8787 8.86155C19.3161 8.29911 19 7.53628 19 6.74087V2.74207H8C7.46957 2.74207 6.96086 2.95272 6.58579 3.32768C6.21071 3.70264 6 4.2112 6 4.74147V22.7361H4V4.74147C4 3.68093 4.42143 2.66382 5.17157 1.9139C5.92172 1.16398 6.93913 0.742676 8 0.742676L19 0.742676L28 9.73997ZM3.2 24.4355H0V32.4311H1.582V29.7479H3.188C3.762 29.7479 4.25 29.634 4.652 29.4021C5.058 29.1681 5.368 28.8522 5.578 28.4543C5.79597 28.0368 5.90663 27.5717 5.9 27.1007C5.9 26.6009 5.794 26.149 5.584 25.7472C5.37512 25.3477 5.05577 25.0166 4.664 24.7934C4.264 24.5535 3.778 24.4355 3.2 24.4355ZM4.29 27.1007C4.29721 27.3642 4.23879 27.6253 4.12 27.8605C4.01343 28.0653 3.84754 28.2333 3.644 28.3424C3.41118 28.4575 3.15365 28.5138 2.894 28.5063H1.576V25.6952H2.896C3.332 25.6952 3.674 25.8151 3.92 26.0571C4.166 26.301 4.29 26.6489 4.29 27.1007ZM6.724 24.4355V32.4311H9.644C10.446 32.4311 11.112 32.2712 11.64 31.9573C12.1743 31.6377 12.5915 31.1547 12.83 30.5797C13.09 29.9799 13.222 29.2561 13.222 28.4123C13.222 27.5726 13.092 26.8568 12.83 26.263C12.5944 25.6946 12.1811 25.2177 11.652 24.9034C11.124 24.5915 10.454 24.4355 9.642 24.4355H6.724ZM8.306 25.7252H9.432C9.928 25.7252 10.332 25.8251 10.65 26.0291C10.9801 26.2449 11.2291 26.5642 11.358 26.9368C11.516 27.3387 11.594 27.8405 11.594 28.4423C11.6002 28.8411 11.5545 29.239 11.458 29.626C11.3867 29.9312 11.2533 30.2184 11.066 30.4697C10.892 30.6939 10.6614 30.8678 10.398 30.9736C10.0893 31.089 9.76149 31.1447 9.432 31.1375H8.306V25.7252ZM15.792 29.2501V32.4311H14.212V24.4355H19.308V25.7412H15.792V27.9745H19.004V29.2501H15.792Z" fill="#2E3092"/>
</svg>
