<svg width="50" height="48" viewBox="0 0 50 48" fill="none" xmlns="http://www.w3.org/2000/svg">
<path d="M12.5 16.5C12.5 15.9091 12.6212 15.3239 12.8568 14.7779C13.0924 14.232 13.4377 13.7359 13.8729 13.318C14.3082 12.9002 14.825 12.5687 15.3937 12.3425C15.9624 12.1164 16.5719 12 17.1875 12C17.8031 12 18.4126 12.1164 18.9813 12.3425C19.55 12.5687 20.0668 12.9002 20.5021 13.318C20.9373 13.7359 21.2826 14.232 21.5182 14.7779C21.7538 15.3239 21.875 15.9091 21.875 16.5C21.875 17.6935 21.3811 18.8381 20.5021 19.682C19.623 20.5259 18.4307 21 17.1875 21C15.9443 21 14.752 20.5259 13.8729 19.682C12.9939 18.8381 12.5 17.6935 12.5 16.5V16.5ZM17.1875 9C15.1155 9 13.1284 9.79018 11.6632 11.1967C10.1981 12.6032 9.375 14.5109 9.375 16.5C9.375 18.4891 10.1981 20.3968 11.6632 21.8033C13.1284 23.2098 15.1155 24 17.1875 24C19.2595 24 21.2466 23.2098 22.7118 21.8033C24.1769 20.3968 25 18.4891 25 16.5C25 14.5109 24.1769 12.6032 22.7118 11.1967C21.2466 9.79018 19.2595 9 17.1875 9ZM32.8125 18C32.8125 17.2044 33.1417 16.4413 33.7278 15.8787C34.3138 15.3161 35.1087 15 35.9375 15C36.7663 15 37.5612 15.3161 38.1472 15.8787C38.7333 16.4413 39.0625 17.2044 39.0625 18C39.0625 18.7956 38.7333 19.5587 38.1472 20.1213C37.5612 20.6839 36.7663 21 35.9375 21C35.1087 21 34.3138 20.6839 33.7278 20.1213C33.1417 19.5587 32.8125 18.7956 32.8125 18ZM35.9375 12C34.2799 12 32.6902 12.6321 31.5181 13.7574C30.346 14.8826 29.6875 16.4087 29.6875 18C29.6875 19.5913 30.346 21.1174 31.5181 22.2426C32.6902 23.3679 34.2799 24 35.9375 24C37.5951 24 39.1848 23.3679 40.3569 22.2426C41.529 21.1174 42.1875 19.5913 42.1875 18C42.1875 16.4087 41.529 14.8826 40.3569 13.7574C39.1848 12.6321 37.5951 12 35.9375 12V12ZM4.6875 31.5C4.6875 30.3065 5.18136 29.1619 6.06044 28.318C6.93951 27.4741 8.1318 27 9.375 27H25C26.2432 27 27.4355 27.4741 28.3146 28.318C29.1936 29.1619 29.6875 30.3065 29.6875 31.5V31.836C29.6842 31.9734 29.6738 32.1106 29.6562 32.247C29.4782 33.7014 28.9144 35.0876 28.0187 36.273C26.3094 38.538 23.0594 40.5 17.1875 40.5C11.3187 40.5 8.06875 38.538 6.35312 36.273C5.45863 35.0873 4.89591 33.7011 4.71875 32.247C4.70319 32.1104 4.69277 31.9733 4.6875 31.836V31.5V31.5ZM7.8125 31.77V31.791L7.825 31.938C7.94602 32.8667 8.30933 33.751 8.88125 34.509C9.9 35.853 12.1188 37.5 17.1875 37.5C22.2562 37.5 24.475 35.853 25.4937 34.509C26.0657 33.751 26.429 32.8667 26.55 31.938C26.5556 31.8881 26.5598 31.8381 26.5625 31.788V31.5C26.5625 31.1022 26.3979 30.7206 26.1049 30.4393C25.8118 30.158 25.4144 30 25 30H9.375C8.9606 30 8.56317 30.158 8.27015 30.4393C7.97712 30.7206 7.8125 31.1022 7.8125 31.5V31.77ZM35.9375 37.5C34.1 37.5 32.5937 37.23 31.375 36.786C31.876 35.905 32.2552 34.9651 32.5031 33.99C33.3406 34.293 34.4531 34.5 35.9375 34.5C39.4344 34.5 40.8687 33.354 41.5 32.502C41.869 32.005 42.1031 31.4276 42.1813 30.822L42.1875 30.738C42.1842 30.5412 42.1005 30.3535 41.9543 30.2154C41.8081 30.0773 41.6113 30 41.4062 30H32.6562C32.4255 28.9121 31.9451 27.8873 31.25 27H41.4062C43.5625 27 45.3125 28.68 45.3125 30.75V30.801C45.3088 30.9103 45.3004 31.0194 45.2875 31.128C45.1551 32.2524 44.7271 33.326 44.0437 34.248C42.725 36.021 40.2531 37.5 35.9375 37.5V37.5Z" fill="#2E3092"/>
</svg>
