<svg width="50" height="48" viewBox="0 0 50 48" fill="none" xmlns="http://www.w3.org/2000/svg">
<path d="M37.2688 0.141065C37.6205 0.280619 37.9211 0.517201 38.1327 0.820864C38.3443 1.12453 38.4572 1.48162 38.4573 1.84694V11.0779H48.0733C48.4542 11.0772 48.8267 11.1852 49.1436 11.388C49.4605 11.5908 49.7076 11.8794 49.8534 12.2171C49.9993 12.5549 50.0374 12.9266 49.9629 13.2852C49.8884 13.6437 49.7046 13.973 49.435 14.2312L41.7422 21.6159C41.5632 21.7873 41.3509 21.9231 41.1172 22.0156C40.8836 22.1081 40.6332 22.1555 40.3805 22.155H29.6375L26.7911 24.8911C26.9432 25.4385 26.9622 26.0121 26.8466 26.5677C26.731 27.1232 26.484 27.6458 26.1245 28.0951C25.765 28.5444 25.3027 28.9084 24.7734 29.1589C24.244 29.4094 23.6618 29.5397 23.0716 29.5398C22.0515 29.5398 21.0732 29.1508 20.3518 28.4583C19.6305 27.7659 19.2252 26.8267 19.2252 25.8474L19.2291 25.6776C19.2555 25.126 19.4104 24.5871 19.6824 24.1007C19.9544 23.6142 20.3366 23.1924 20.8009 22.8665C21.2652 22.5406 21.7997 22.3187 22.3651 22.2173C22.9304 22.1159 23.5123 22.1375 24.0679 22.2806L26.9181 19.5445V9.23171C26.9176 8.9891 26.967 8.74878 27.0633 8.5245C27.1597 8.30022 27.3012 8.09637 27.4796 7.9246L35.1725 0.539843C35.4416 0.281811 35.7845 0.106199 36.1576 0.0352165C36.5308 -0.0357658 36.9174 0.00106993 37.2688 0.141065ZM39.5843 18.4627L43.4307 14.7703H36.5341C36.024 14.7703 35.5349 14.5758 35.1742 14.2295C34.8135 13.8833 34.6109 13.4137 34.6109 12.9241V6.30365L30.7645 9.99603V18.4627H39.5843ZM45.9386 22.8049C46.6022 27.4024 45.7449 32.0839 43.4876 36.1885C41.2303 40.2932 37.6871 43.6135 33.3581 45.6809C29.0291 47.7483 24.1331 48.4583 19.3611 47.7107C14.5892 46.9631 10.1823 44.7956 6.76274 41.5142C3.34315 38.2328 1.08351 34.0033 0.302834 29.4228C-0.477846 24.8422 0.25986 20.1419 2.41181 15.9855C4.56376 11.8291 8.02126 8.42647 12.2962 6.25797C16.5712 4.08947 21.4477 3.26464 26.2372 3.89991L24.7641 5.31409C24.1544 5.89943 23.6891 6.60852 23.4024 7.38921L23.0716 7.38552C19.2539 7.38606 15.5228 8.47732 12.3533 10.5203C9.18383 12.5633 6.71948 15.4656 5.27408 18.8577C3.82867 22.2497 3.46762 25.9779 4.2369 29.5675C5.00619 33.1572 6.87099 36.4459 9.59383 39.0147C12.3167 41.5835 15.7744 43.3163 19.5265 43.9924C23.2787 44.6685 27.1556 44.2573 30.6635 42.8112C34.1715 41.365 37.1516 38.9493 39.2246 35.8718C41.2975 32.7943 42.3694 29.1942 42.3037 25.5299C43.1139 25.2548 43.8498 24.8095 44.4577 24.2265L45.9347 22.8049H45.9386ZM23.0716 12.9241C20.409 12.9241 17.8062 13.682 15.5923 15.1021C13.3784 16.5221 11.6529 18.5404 10.634 20.9019C9.61502 23.2633 9.34842 25.8618 9.86787 28.3686C10.3873 30.8755 11.6695 33.1782 13.5523 34.9856C15.435 36.7929 17.8338 38.0238 20.4453 38.5224C23.0567 39.0211 25.7636 38.7652 28.2235 37.787C30.6834 36.8089 32.786 35.1525 34.2653 33.0272C35.7445 30.902 36.5341 28.4034 36.5341 25.8474H32.6877C32.6877 27.6731 32.1237 29.4578 31.0671 30.9759C30.0105 32.4939 28.5086 33.677 26.7515 34.3757C24.9944 35.0744 23.061 35.2572 21.1957 34.901C19.3303 34.5448 17.6169 33.6657 16.2721 32.3747C14.9273 31.0837 14.0114 29.4389 13.6404 27.6483C13.2693 25.8577 13.4598 24.0016 14.1876 22.3149C14.9154 20.6282 16.1479 19.1865 17.7293 18.1722C19.3106 17.1579 21.1698 16.6165 23.0716 16.6165V12.9241Z" fill="#2E3092"/>
</svg>
