<svg width="72" height="72" viewBox="0 0 72 72" fill="none" xmlns="http://www.w3.org/2000/svg">
<path d="M12 63V27L36 9L60 27V63H12ZM18 57H54V30L36 16.5L18 30V57ZM30 54H33V42C34.25 42 35.312 41.562 36.186 40.686C37.062 39.812 37.5 38.75 37.5 37.5V28.5H34.5V37.5H33V28.5H30V37.5H28.5V28.5H25.5V37.5C25.5 38.75 25.938 39.812 26.814 40.686C27.688 41.562 28.75 42 30 42V54ZM42 54H45V28.5C43.35 28.5 41.938 29.087 40.764 30.261C39.588 31.437 39 32.85 39 34.5V43.5H42V54ZM18 57H54H18Z" fill="#2E3092"/>
</svg>
