<svg width="72" height="72" viewBox="0 0 72 72" fill="none" xmlns="http://www.w3.org/2000/svg">
<path d="M37.9089 15.6C45.9039 15.6 48.8684 19 49.1379 24H59.0643C58.7498 17.12 54.0337 10.8 44.6463 8.76V0H31.1716V8.64C29.4198 8.96 27.8029 9.48 26.2308 10.08L33.0131 16.12C34.4504 15.8 36.1123 15.6 37.9089 15.6ZM6.33312 3.68L0 9.32L15.451 23.08C15.451 31.4 22.4579 35.96 33.0131 38.72L48.7785 52.76C47.2514 54.72 44.0624 56.4 37.9089 56.4C28.6563 56.4 25.0181 52.72 24.524 48H14.6425C15.1815 56.76 22.5477 61.68 31.1716 63.32V72H44.6463V63.4C48.9582 62.68 52.8659 61.2 55.6956 58.92L65.6669 67.8L72 62.16L6.33312 3.68Z" fill="#2E3092"/>
</svg>
