<svg width="346" height="372" viewBox="0 0 346 372" fill="none" xmlns="http://www.w3.org/2000/svg">
<path d="M328 95.8412C326.227 80.7207 322.767 66.2207 315.488 53.0104C302.064 28.4677 277.776 13.6373 253.215 6.1173C232.607 -0.185615 210.41 -2.00718 189.853 4.5053C167.287 11.6545 148.35 28.113 128.029 41.0171C113.154 50.3255 97.6241 58.3195 81.5877 64.9231C68.6488 70.3474 52.2065 73.3861 41.5713 83.6867C35.0621 90.05 29.2905 97.2639 24.3857 105.167C4.52846 136.85 -1.90418 177.328 1.12814 215.113C3.2699 241.437 9.87917 268.075 24.6801 288.927C45.4869 318.192 81.2049 332.612 114.906 328.977C153.178 324.85 189.426 299.808 227.463 305.82C246.4 308.811 264.52 319.466 283.568 317.483C302.343 315.533 318.41 301.363 329.737 284.88C338.82 271.638 344.862 255.623 345.422 238.938C346.032 220.892 338.569 204.434 334.823 187.201C328.31 157.081 331.57 126.268 328 95.8412Z" fill="#407BFF"/>
<path opacity="0.7" d="M328 95.8412C326.227 80.7207 322.767 66.2207 315.488 53.0104C302.064 28.4677 277.776 13.6373 253.215 6.1173C232.607 -0.185615 210.41 -2.00718 189.853 4.5053C167.287 11.6545 148.35 28.113 128.029 41.0171C113.154 50.3255 97.6241 58.3195 81.5877 64.9231C68.6488 70.3474 52.2065 73.3861 41.5713 83.6867C35.0621 90.05 29.2905 97.2639 24.3857 105.167C4.52846 136.85 -1.90418 177.328 1.12814 215.113C3.2699 241.437 9.87917 268.075 24.6801 288.927C45.4869 318.192 81.2049 332.612 114.906 328.977C153.178 324.85 189.426 299.808 227.463 305.82C246.4 308.811 264.52 319.466 283.568 317.483C302.343 315.533 318.41 301.363 329.737 284.88C338.82 271.638 344.862 255.623 345.422 238.938C346.032 220.892 338.569 204.434 334.823 187.201C328.31 157.081 331.57 126.268 328 95.8412Z" fill="white"/>
<path d="M236.509 239.084L343.921 239.084V234.651H236.509V239.084Z" stroke="#263238" stroke-linecap="round" stroke-linejoin="round"/>
<path d="M241.491 358.984H338.938V239.213H241.491V358.984Z" stroke="#263238" stroke-linecap="round" stroke-linejoin="round"/>
<path d="M245.003 270.776H335.553V244.79H245.003V270.776Z" stroke="#263238" stroke-linecap="round" stroke-linejoin="round"/>
<path d="M285.901 260.169H294.954V255.381H285.901V260.169Z" fill="#263238" stroke="#263238" stroke-linecap="round" stroke-linejoin="round"/>
<path d="M245.003 303.604H335.553V277.619H245.003V303.604Z" stroke="#263238" stroke-linecap="round" stroke-linejoin="round"/>
<path d="M285.901 293.005H294.954V288.217H285.901V293.005Z" fill="#263238" stroke="#263238" stroke-linecap="round" stroke-linejoin="round"/>
<path d="M245.003 336.578H335.553V310.592H245.003V336.578Z" stroke="#263238" stroke-linecap="round" stroke-linejoin="round"/>
<path d="M285.901 325.979H294.954V321.191H285.901V325.979Z" fill="#263238" stroke="#263238" stroke-linecap="round" stroke-linejoin="round"/>
<path d="M294.704 182.253C295.801 182.777 298.487 182.712 298.487 182.712C298.487 182.712 297.913 180.786 297.861 180.665C297.273 179.319 295.411 177.086 293.894 177.312C293.642 177.355 293.401 177.457 293.186 177.609C292.972 177.762 292.789 177.962 292.65 178.197C292.511 178.432 292.419 178.696 292.38 178.973C292.341 179.25 292.355 179.532 292.422 179.802C292.619 180.367 292.925 180.878 293.319 181.301C293.712 181.724 294.185 182.048 294.704 182.253V182.253Z" fill="#263238"/>
<path d="M321.84 182.897C321.84 182.897 322.326 180.947 322.341 180.818C322.532 179.335 322.098 176.353 320.721 175.619C320.489 175.505 320.237 175.446 319.981 175.446C319.726 175.446 319.474 175.505 319.241 175.619C319.009 175.733 318.801 175.9 318.631 176.108C318.461 176.317 318.333 176.562 318.256 176.828C318.133 177.416 318.128 178.026 318.241 178.616C318.355 179.206 318.583 179.762 318.911 180.246C319.566 181.326 321.833 182.897 321.84 182.897Z" fill="#263238"/>
<path d="M329.855 172.242C328.332 172.065 326.521 174.346 325.969 175.708C325.918 175.829 325.366 177.771 325.395 177.771C325.108 178.126 324.799 178.513 324.475 178.948C323.879 179.754 323.217 180.657 322.554 181.705C321.827 182.818 321.161 183.978 320.56 185.178C319.875 186.521 319.304 187.93 318.852 189.386C318.852 189.386 318.852 189.386 318.852 189.434C318.852 188.942 318.852 187.572 318.852 187.467C318.676 185.984 317.542 183.228 316.033 182.922C315.782 182.88 315.526 182.896 315.281 182.969C315.036 183.043 314.808 183.172 314.611 183.348C314.415 183.525 314.254 183.744 314.141 183.993C314.027 184.242 313.962 184.514 313.95 184.792C313.975 185.395 314.12 185.985 314.374 186.521C314.628 187.057 314.986 187.525 315.422 187.895C316.284 188.701 318.661 189.547 318.852 189.611C318.428 191.102 318.091 192.62 317.844 194.157C317.704 195.06 317.579 195.963 317.468 196.874C317.468 196.454 317.468 196.068 317.468 196.019C317.292 194.536 316.158 191.78 314.657 191.481C314.406 191.437 314.149 191.451 313.903 191.523C313.657 191.595 313.428 191.723 313.23 191.899C313.033 192.075 312.872 192.294 312.757 192.543C312.643 192.792 312.578 193.065 312.567 193.343C312.591 193.947 312.736 194.537 312.99 195.073C313.244 195.609 313.602 196.078 314.039 196.446C315.062 197.189 316.184 197.754 317.365 198.123C317.329 198.477 317.284 198.824 317.248 199.179C317.064 200.855 316.887 202.54 316.666 204.176C316.593 204.756 316.497 205.32 316.401 205.893C316.401 205.514 316.401 205.191 316.401 205.143C316.225 203.66 315.091 200.912 313.582 200.605C313.332 200.562 313.076 200.577 312.831 200.649C312.586 200.722 312.357 200.85 312.161 201.026C311.964 201.202 311.804 201.421 311.69 201.669C311.576 201.918 311.511 202.19 311.5 202.467C311.524 203.071 311.668 203.661 311.923 204.197C312.177 204.733 312.535 205.201 312.972 205.57C313.965 206.29 315.055 206.834 316.203 207.182C316.092 207.763 315.982 208.343 315.849 208.899C315.746 209.27 315.68 209.641 315.562 210.011C315.444 210.382 315.341 210.753 315.238 211.116C315.01 211.809 314.775 212.526 314.502 213.195C314.34 213.654 314.179 214.098 314.017 214.541C314.098 213.969 314.237 212.84 314.237 212.744C314.221 211.427 313.896 210.137 313.295 208.996C313.309 208.687 313.258 208.379 313.148 208.095C313.038 207.81 312.87 207.557 312.658 207.353C312.446 207.149 312.194 207.001 311.922 206.918C311.65 206.836 311.365 206.821 311.087 206.876C309.615 207.311 308.673 210.148 308.6 211.648C308.6 211.736 308.651 212.695 308.695 213.3C308.614 212.953 308.548 212.607 308.467 212.244C308.313 211.527 308.136 210.817 307.952 210.06C307.856 209.689 307.753 209.318 307.65 208.947C307.547 208.577 307.407 208.198 307.29 207.819C307.003 206.94 306.664 206.07 306.311 205.2C307.505 204.925 308.655 204.452 309.718 203.797C310.177 203.464 310.563 203.025 310.85 202.511C311.138 201.998 311.319 201.421 311.382 200.823C311.389 200.544 311.342 200.267 311.245 200.01C311.148 199.752 311.002 199.52 310.817 199.329C310.632 199.137 310.413 198.99 310.173 198.898C309.933 198.805 309.678 198.769 309.424 198.792C307.9 198.977 306.583 201.629 306.311 203.096C306.311 203.184 306.2 204.265 306.164 204.853C305.943 204.329 305.729 203.813 305.494 203.289C304.817 201.79 304.081 200.299 303.359 198.8C303.139 198.349 302.925 197.889 302.704 197.43C302.91 197.373 305.332 196.761 306.237 195.995C306.695 195.662 307.082 195.223 307.369 194.709C307.656 194.196 307.838 193.619 307.9 193.021C307.908 192.742 307.861 192.465 307.764 192.208C307.666 191.95 307.521 191.718 307.336 191.526C307.151 191.335 306.932 191.188 306.692 191.095C306.451 191.003 306.196 190.967 305.943 190.99C304.427 191.175 303.102 193.827 302.829 195.294C302.829 195.399 302.682 196.946 302.668 197.341C302.189 196.334 301.718 195.326 301.291 194.302C300.717 192.931 300.225 191.52 299.819 190.079C299.915 190.079 302.447 189.426 303.374 188.644C303.832 188.311 304.219 187.872 304.506 187.359C304.793 186.845 304.975 186.269 305.037 185.67C305.044 185.392 304.998 185.115 304.901 184.857C304.803 184.6 304.657 184.367 304.473 184.176C304.288 183.984 304.068 183.837 303.828 183.745C303.588 183.652 303.333 183.616 303.08 183.639C301.564 183.824 300.239 186.476 299.966 187.935C299.966 188.032 299.849 189.217 299.812 189.781H299.731C299.347 188.319 299.086 186.821 298.951 185.307C298.862 184.501 298.826 183.695 298.804 182.889C300.04 182.764 301.251 182.432 302.395 181.906C302.884 181.628 303.312 181.237 303.649 180.759C303.986 180.282 304.224 179.73 304.346 179.142C304.38 178.866 304.361 178.585 304.289 178.318C304.218 178.051 304.096 177.803 303.931 177.591C303.767 177.379 303.563 177.207 303.334 177.087C303.105 176.967 302.855 176.9 302.601 176.893C301.07 176.893 299.495 179.367 299.076 180.794C299.076 180.866 298.899 181.68 298.796 182.277C298.796 181.93 298.796 181.568 298.796 181.229C298.796 179.956 298.87 178.811 298.943 177.771C298.988 177.191 299.039 176.659 299.091 176.159C300.13 175.427 301.06 174.524 301.851 173.483C302.167 172.991 302.382 172.428 302.48 171.835C302.578 171.242 302.557 170.633 302.417 170.05C302.331 169.788 302.196 169.549 302.02 169.348C301.844 169.147 301.632 168.989 301.397 168.883C301.162 168.778 300.909 168.727 300.655 168.735C300.401 168.743 300.151 168.809 299.922 168.929C298.568 169.735 298.207 172.694 298.45 174.168C298.45 174.297 298.98 176.256 299.002 176.24C298.943 176.715 298.884 177.223 298.826 177.779C298.737 178.803 298.642 179.964 298.612 181.237C298.57 182.608 298.599 183.98 298.7 185.348C298.808 186.877 299.04 188.393 299.392 189.877V189.934C299.149 189.515 298.443 188.386 298.377 188.322C297.486 187.193 295.146 185.581 293.74 186.234C293.509 186.35 293.303 186.518 293.136 186.727C292.968 186.935 292.843 187.18 292.767 187.445C292.691 187.71 292.667 187.99 292.697 188.266C292.726 188.542 292.808 188.808 292.938 189.047C293.259 189.537 293.673 189.944 294.152 190.241C294.631 190.537 295.164 190.716 295.712 190.764C296.853 190.941 299.245 190.184 299.436 190.119C299.839 191.622 300.33 193.095 300.908 194.528C301.24 195.334 301.593 196.188 301.961 197.019L301.512 196.317C300.614 195.181 298.281 193.577 296.875 194.23C296.644 194.345 296.437 194.512 296.269 194.72C296.101 194.929 295.975 195.174 295.899 195.44C295.823 195.705 295.799 195.985 295.829 196.262C295.859 196.538 295.942 196.804 296.073 197.043C296.394 197.532 296.808 197.94 297.288 198.236C297.767 198.533 298.299 198.711 298.848 198.76C300.076 198.759 301.297 198.552 302.469 198.147C302.616 198.461 302.756 198.784 302.896 199.098C303.632 200.613 304.287 202.121 304.934 203.62C305.163 204.144 305.369 204.676 305.575 205.232C305.383 204.917 305.214 204.659 305.185 204.619C304.294 203.491 301.954 201.879 300.548 202.532C300.317 202.648 300.111 202.817 299.943 203.026C299.776 203.236 299.65 203.481 299.575 203.747C299.499 204.013 299.475 204.293 299.505 204.57C299.534 204.846 299.616 205.113 299.746 205.353C300.068 205.84 300.483 206.245 300.962 206.54C301.441 206.835 301.973 207.013 302.52 207.061C303.716 207.066 304.904 206.87 306.046 206.481C306.244 207.029 306.443 207.577 306.612 208.093C306.716 208.464 306.848 208.818 306.936 209.197L307.223 210.31C307.378 211.027 307.54 211.76 307.68 212.47C307.775 212.953 307.864 213.421 307.952 213.888C307.731 213.364 307.282 212.333 307.216 212.276C306.48 211.011 304.404 209.052 302.925 209.447C302.681 209.524 302.454 209.656 302.26 209.835C302.065 210.014 301.907 210.235 301.795 210.485C301.684 210.735 301.621 211.008 301.612 211.286C301.602 211.564 301.646 211.841 301.74 212.099C301.991 212.635 302.346 213.106 302.779 213.477C303.212 213.849 303.714 214.113 304.25 214.251C305.491 214.459 306.755 214.459 307.996 214.251C308.143 215.057 308.276 215.79 308.386 216.508C308.636 218.079 308.828 219.49 308.975 220.691H302.947V234.57H318.801V220.667H312.67C313.067 219.699 313.501 218.603 313.958 217.386C314.237 216.637 314.524 215.831 314.812 215.009C315.099 215.073 317.454 215.597 318.55 215.323C319.093 215.231 319.61 215.01 320.067 214.676C320.523 214.342 320.907 213.902 321.193 213.388C321.307 213.14 321.371 212.867 321.382 212.589C321.393 212.311 321.351 212.033 321.257 211.774C321.163 211.516 321.02 211.281 320.838 211.087C320.656 210.893 320.438 210.744 320.199 210.648C318.727 210.108 316.519 211.913 315.724 213.122C315.673 213.187 315.231 214.025 314.988 214.557C315.106 214.219 315.224 213.888 315.334 213.542C315.57 212.848 315.783 212.147 316.011 211.406C316.114 211.035 316.21 210.664 316.313 210.293C316.416 209.923 316.497 209.487 316.585 209.133C316.784 208.222 316.946 207.295 317.086 206.352C318.218 206.852 319.415 207.154 320.633 207.247C321.184 207.247 321.727 207.116 322.226 206.861C322.724 206.606 323.166 206.234 323.518 205.772C323.665 205.544 323.766 205.285 323.815 205.012C323.864 204.739 323.86 204.457 323.803 204.186C323.746 203.914 323.638 203.659 323.485 203.436C323.332 203.214 323.137 203.029 322.915 202.894C321.553 202.129 319.117 203.547 318.146 204.603C318.087 204.668 317.468 205.506 317.137 205.981C317.218 205.409 317.299 204.845 317.365 204.273C317.557 202.612 317.697 200.92 317.851 199.243C317.895 198.727 317.947 198.211 317.998 197.696C318.19 197.776 320.523 198.727 321.678 198.639C322.694 198.558 323.975 198.155 324.564 197.164C324.709 196.935 324.808 196.676 324.856 196.402C324.904 196.129 324.899 195.848 324.842 195.576C324.784 195.305 324.675 195.05 324.522 194.828C324.369 194.606 324.175 194.421 323.953 194.286C322.598 193.48 320.155 194.931 319.191 195.987C319.117 196.068 318.227 197.285 318.02 197.599C318.131 196.462 318.249 195.334 318.403 194.23C318.61 192.736 318.905 191.257 319.286 189.805C319.375 189.805 321.804 190.845 322.966 190.756C323.516 190.755 324.059 190.622 324.558 190.367C325.056 190.112 325.497 189.742 325.852 189.281C325.998 189.053 326.099 188.794 326.148 188.521C326.197 188.248 326.193 187.966 326.136 187.695C326.079 187.423 325.971 187.168 325.818 186.946C325.665 186.723 325.471 186.538 325.248 186.404C323.886 185.638 321.45 187.048 320.479 188.104C320.412 188.177 319.743 189.104 319.426 189.547H319.353C319.771 188.095 320.308 186.687 320.957 185.34C321.303 184.598 321.693 183.905 322.046 183.244C323.143 183.883 324.322 184.337 325.542 184.59C326.09 184.652 326.643 184.584 327.164 184.389C327.685 184.194 328.161 183.878 328.56 183.462C328.727 183.253 328.852 183.008 328.928 182.742C329.003 182.477 329.026 182.198 328.996 181.922C328.966 181.646 328.884 181.38 328.754 181.141C328.625 180.902 328.451 180.696 328.244 180.536C326.963 179.609 324.402 180.721 323.334 181.656C323.276 181.705 322.738 182.293 322.348 182.728C322.525 182.43 322.694 182.116 322.871 181.842C323.504 180.786 324.151 179.859 324.733 179.045C325.064 178.585 325.373 178.182 325.66 177.804C326.906 177.816 328.147 177.623 329.34 177.231C329.854 177.014 330.317 176.676 330.699 176.242C331.08 175.808 331.37 175.287 331.548 174.717C331.617 174.429 331.626 174.128 331.573 173.837C331.521 173.545 331.41 173.27 331.247 173.032C331.084 172.794 330.875 172.6 330.634 172.463C330.393 172.326 330.127 172.251 329.855 172.242V172.242ZM313.008 216.999C312.464 218.386 311.934 219.619 311.477 220.667H309.866C309.696 219.425 309.468 217.95 309.13 216.298C308.99 215.492 308.82 214.686 308.644 213.808C309.358 213.49 310.056 213.129 310.734 212.728C311.657 213.595 312.685 214.319 313.788 214.88C313.553 215.613 313.281 216.322 313.008 216.999V216.999Z" fill="#263238"/>
<path d="M10.9531 240.47L19.4907 330.041" stroke="#263238" stroke-width="2" stroke-miterlimit="10"/>
<path d="M18.1145 312.897L14.2432 308.424" stroke="#263238" stroke-width="2" stroke-miterlimit="10"/>
<path d="M15.4214 309.762C15.4119 309.077 15.2698 308.403 15.0047 307.784C14.7395 307.164 14.3573 306.613 13.8832 306.167C12.8896 305.2 7.65664 302.79 7.16352 304.805C6.62624 306.997 11.977 311.301 15.4214 309.762Z" fill="#407BFF" stroke="#263238" stroke-miterlimit="10"/>
<path d="M15.4207 309.762L10.4453 306.368" stroke="#263238" stroke-width="0.5" stroke-miterlimit="10"/>
<path d="M19.0862 323.085L15.2148 318.612" stroke="#263238" stroke-width="2" stroke-miterlimit="10"/>
<path d="M16.3921 319.95C16.3826 319.265 16.2406 318.591 15.9754 317.971C15.7102 317.352 15.328 316.801 14.8539 316.355C13.8603 315.388 8.62735 312.978 8.13423 314.993C7.59695 317.185 12.9477 321.489 16.3921 319.95Z" fill="#407BFF" stroke="#263238" stroke-miterlimit="10"/>
<path d="M16.3924 319.95L11.417 316.556" stroke="#263238" stroke-width="0.5" stroke-miterlimit="10"/>
<path d="M15.7454 288.04L11.874 283.567" stroke="#263238" stroke-width="2" stroke-miterlimit="10"/>
<path d="M13.0513 284.905C13.0418 284.22 12.8997 283.546 12.6346 282.926C12.3694 282.307 11.9871 281.756 11.5131 281.31C10.5195 280.335 5.28653 277.933 4.79341 279.948C4.25613 282.14 9.60685 286.444 13.0513 284.905Z" fill="#407BFF" stroke="#263238" stroke-miterlimit="10"/>
<path d="M13.0515 284.905L8.07617 281.511" stroke="#263238" stroke-width="0.5" stroke-miterlimit="10"/>
<path d="M16.7161 298.228L12.8447 293.755" stroke="#263238" stroke-width="2" stroke-miterlimit="10"/>
<path d="M14.0228 295.093C14.0133 294.408 13.8712 293.734 13.6061 293.114C13.3409 292.495 12.9586 291.944 12.4846 291.498C11.491 290.523 6.25802 288.121 5.7649 290.136C5.22762 292.328 10.6078 296.632 14.0228 295.093Z" fill="#407BFF" stroke="#263238" stroke-miterlimit="10"/>
<path d="M14.0222 295.093L9.04688 291.699" stroke="#263238" stroke-width="0.5" stroke-miterlimit="10"/>
<path d="M14.1702 271.493L10.2988 267.011" stroke="#263238" stroke-width="2" stroke-miterlimit="10"/>
<path d="M11.4761 268.358C11.4685 267.672 11.3266 266.996 11.0599 266.376C10.7933 265.756 10.4081 265.206 9.93053 264.763C8.93693 263.788 3.71133 261.386 3.21821 263.401C2.68093 265.593 8.03165 269.897 11.4761 268.358Z" fill="#407BFF" stroke="#263238" stroke-miterlimit="10"/>
<path d="M11.4763 268.357L6.50098 264.964" stroke="#263238" stroke-width="0.5" stroke-miterlimit="10"/>
<path d="M12.5872 254.873L8.71582 250.392" stroke="#263238" stroke-width="2" stroke-miterlimit="10"/>
<path d="M9.87163 251.738C9.86402 251.052 9.72209 250.377 9.45544 249.757C9.18879 249.136 8.80364 248.586 8.32603 248.143C7.33243 247.168 2.10683 244.758 1.61371 246.781C1.09115 248.973 6.44187 253.277 9.87163 251.738Z" fill="#407BFF" stroke="#263238" stroke-miterlimit="10"/>
<path d="M9.89385 251.738L4.91113 248.336" stroke="#263238" stroke-width="0.5" stroke-miterlimit="10"/>
<path d="M17.4668 306.868L20.4034 301.613" stroke="#263238" stroke-width="2" stroke-miterlimit="10"/>
<path d="M19.5059 303.193C19.3885 302.523 19.4019 301.833 19.5452 301.169C19.6886 300.505 19.9586 299.882 20.3375 299.34C21.1251 298.163 25.7839 294.625 26.6524 296.487C27.5945 298.534 23.1711 303.926 19.5059 303.193Z" fill="#407BFF" stroke="#263238" stroke-miterlimit="10"/>
<path d="M19.5059 303.193L23.9881 298.502" stroke="#263238" stroke-width="0.5" stroke-miterlimit="10"/>
<path d="M14.9062 280.061L17.8503 274.806" stroke="#263238" stroke-width="2" stroke-miterlimit="10"/>
<path d="M16.9523 276.385C16.8338 275.714 16.8467 275.023 16.99 274.357C17.1334 273.692 17.404 273.067 17.784 272.525C18.5715 271.348 23.2304 267.809 24.0989 269.671C25.0409 271.694 20.6176 277.119 16.9523 276.385Z" fill="#407BFF" stroke="#263238" stroke-miterlimit="10"/>
<path d="M16.9521 276.385L21.4344 271.694" stroke="#263238" stroke-width="0.5" stroke-miterlimit="10"/>
<path d="M13.7871 268.285L16.7311 263.03" stroke="#263238" stroke-width="2" stroke-miterlimit="10"/>
<path d="M15.8329 264.61C15.7123 263.938 15.7234 263.245 15.8655 262.578C16.0076 261.911 16.2775 261.285 16.6572 260.741C17.4521 259.564 22.111 256.026 22.9721 257.888C23.9142 259.911 19.4908 265.335 15.8329 264.61Z" fill="#407BFF" stroke="#263238" stroke-miterlimit="10"/>
<path d="M15.833 264.61L20.3152 259.919" stroke="#263238" stroke-width="0.5" stroke-miterlimit="10"/>
<path d="M12.1387 251.012L15.0827 245.757" stroke="#263238" stroke-width="2" stroke-miterlimit="10"/>
<path d="M14.1849 247.337C14.0653 246.664 14.0776 245.972 14.221 245.305C14.3644 244.638 14.6356 244.012 15.0166 243.468C15.8041 242.291 20.463 238.753 21.3315 240.615C22.2735 242.638 17.8502 248.062 14.1849 247.337Z" fill="#407BFF" stroke="#263238" stroke-miterlimit="10"/>
<path d="M14.1846 247.337L18.6668 242.646" stroke="#263238" stroke-width="0.5" stroke-miterlimit="10"/>
<path d="M10.8802 239.97C10.7606 239.298 10.773 238.605 10.9163 237.938C11.0597 237.271 11.3309 236.645 11.7119 236.101C12.4994 234.925 17.1583 231.386 18.0268 233.248C18.9688 235.271 14.5455 240.696 10.8802 239.97Z" fill="#407BFF" stroke="#263238" stroke-miterlimit="10"/>
<path d="M10.8799 239.97L15.3621 235.279" stroke="#263238" stroke-width="0.5" stroke-miterlimit="10"/>
<path d="M11.1454 240.172C10.5235 240.236 9.89617 240.155 9.30495 239.934C8.71372 239.713 8.17203 239.357 7.71564 238.89C6.73676 237.907 4.03564 232.442 5.78732 231.709C7.723 230.87 12.1905 236.263 11.1454 240.172Z" fill="#407BFF" stroke="#263238" stroke-miterlimit="10"/>
<path d="M11.1449 240.172L7.35449 234.796" stroke="#263238" stroke-width="0.5" stroke-miterlimit="10"/>
<path d="M33.4675 252.802L24.9814 342.381" stroke="#263238" stroke-width="2" stroke-miterlimit="10"/>
<path d="M26.8581 325.293L23.9141 320.046" stroke="#263238" stroke-width="2" stroke-miterlimit="10"/>
<path d="M24.8128 321.618C24.9313 320.947 24.9185 320.255 24.7751 319.59C24.6317 318.924 24.3611 318.3 23.9812 317.757C23.1863 316.581 18.5274 313.05 17.6589 314.904C16.7242 316.935 21.1476 322.351 24.8128 321.618Z" fill="#407BFF" stroke="#263238" stroke-miterlimit="10"/>
<path d="M24.8121 321.618L20.5801 317.177" stroke="#263238" stroke-width="0.5" stroke-miterlimit="10"/>
<path d="M29.2135 300.436L26.2695 295.181" stroke="#263238" stroke-width="2" stroke-miterlimit="10"/>
<path d="M27.1677 296.761C27.2873 296.088 27.2749 295.396 27.1316 294.729C26.9882 294.062 26.717 293.436 26.336 292.892C25.5485 291.715 20.8822 288.177 20.0211 290.039C19.079 292.086 23.5024 297.494 27.1677 296.761Z" fill="#407BFF" stroke="#263238" stroke-miterlimit="10"/>
<path d="M27.1675 296.761L22.9355 292.312" stroke="#263238" stroke-width="0.5" stroke-miterlimit="10"/>
<path d="M28.2497 310.624L25.3057 305.369" stroke="#263238" stroke-width="2" stroke-miterlimit="10"/>
<path d="M26.2035 306.949C26.3219 306.277 26.3091 305.586 26.1657 304.921C26.0224 304.255 25.7518 303.631 25.3718 303.088C24.5769 301.911 19.918 298.373 19.0495 300.235C18.1148 302.258 22.5382 307.682 26.2035 306.949Z" fill="#407BFF" stroke="#263238" stroke-miterlimit="10"/>
<path d="M26.2037 306.949L21.9717 302.5" stroke="#263238" stroke-width="0.5" stroke-miterlimit="10"/>
<path d="M30.7809 283.889L27.8369 278.634" stroke="#263238" stroke-width="2" stroke-miterlimit="10"/>
<path d="M28.7351 280.214C28.8546 279.541 28.8423 278.848 28.6989 278.181C28.5556 277.514 28.2844 276.889 27.9034 276.345C27.1159 275.176 22.4496 271.638 21.5885 273.5C20.6464 275.523 25.0698 280.947 28.7351 280.214Z" fill="#407BFF" stroke="#263238" stroke-miterlimit="10"/>
<path d="M28.7349 280.214L24.5029 275.765" stroke="#263238" stroke-width="0.5" stroke-miterlimit="10"/>
<path d="M32.3561 267.269L29.4121 262.014" stroke="#263238" stroke-width="2" stroke-miterlimit="10"/>
<path d="M30.3103 263.594C30.4298 262.921 30.4175 262.229 30.2741 261.562C30.1308 260.895 29.8596 260.269 29.4786 259.725C28.6911 258.549 24.0248 255.018 23.1637 256.88C22.2216 258.903 26.645 264.319 30.3103 263.594Z" fill="#407BFF" stroke="#263238" stroke-miterlimit="10"/>
<path d="M30.3101 263.594L26.0781 259.145" stroke="#263238" stroke-width="0.5" stroke-miterlimit="10"/>
<path d="M27.3516 319.248L31.2229 314.775" stroke="#263238" stroke-width="2" stroke-miterlimit="10"/>
<path d="M30.0449 316.113C30.0545 315.429 30.1965 314.754 30.4617 314.135C30.7269 313.515 31.1091 312.964 31.5832 312.518C32.5768 311.551 37.8024 309.133 38.3028 311.148C38.8401 313.34 33.4894 317.652 30.0449 316.113Z" fill="#407BFF" stroke="#263238" stroke-miterlimit="10"/>
<path d="M30.0449 316.113L35.3147 312.534" stroke="#263238" stroke-width="0.5" stroke-miterlimit="10"/>
<path d="M29.8906 292.441L33.762 287.968" stroke="#263238" stroke-width="2" stroke-miterlimit="10"/>
<path d="M32.585 289.305C32.5991 288.618 32.7468 287.942 33.0184 287.322C33.29 286.702 33.6792 286.153 34.16 285.711C35.1536 284.735 40.3792 282.326 40.8797 284.341C41.3802 286.533 36.0368 290.845 32.585 289.305Z" fill="#407BFF" stroke="#263238" stroke-miterlimit="10"/>
<path d="M32.585 289.305L37.8547 285.727" stroke="#263238" stroke-width="0.5" stroke-miterlimit="10"/>
<path d="M31.0098 280.657L34.8811 276.184" stroke="#263238" stroke-width="2" stroke-miterlimit="10"/>
<path d="M33.7031 277.522C33.7127 276.837 33.8547 276.163 34.1199 275.544C34.3851 274.924 34.7673 274.373 35.2414 273.927C36.235 272.96 41.4606 270.542 41.9537 272.557C42.4983 274.757 37.1476 279.061 33.7031 277.522Z" fill="#407BFF" stroke="#263238" stroke-miterlimit="10"/>
<path d="M33.7031 277.522L38.9729 273.943" stroke="#263238" stroke-width="0.5" stroke-miterlimit="10"/>
<path d="M32.6436 263.393L36.5149 258.911" stroke="#263238" stroke-width="2" stroke-miterlimit="10"/>
<path d="M35.3369 260.249C35.3423 259.559 35.4823 258.879 35.7476 258.253C36.013 257.628 36.3974 257.072 36.8752 256.622C37.8688 255.655 43.0944 253.237 43.5948 255.26C44.1321 257.485 38.7888 261.789 35.3369 260.249Z" fill="#407BFF" stroke="#263238" stroke-miterlimit="10"/>
<path d="M35.3369 260.249L40.6067 256.671" stroke="#263238" stroke-width="0.5" stroke-miterlimit="10"/>
<path d="M33.4902 252.302C33.4998 251.618 33.6418 250.944 33.907 250.324C34.1722 249.704 34.5544 249.153 35.0285 248.707C36.0221 247.732 41.2477 245.322 41.7482 247.337C42.256 249.529 36.9421 253.841 33.4902 252.302Z" fill="#407BFF" stroke="#263238" stroke-miterlimit="10"/>
<path d="M33.4902 252.302L38.76 248.723" stroke="#263238" stroke-width="0.5" stroke-miterlimit="10"/>
<path d="M33.7111 252.592C33.0898 252.514 32.4911 252.291 31.9553 251.938C31.4195 251.585 30.9591 251.11 30.6052 250.545C29.8251 249.36 28.1838 243.42 30.0679 243.089C32.114 242.686 35.4702 248.965 33.7111 252.592Z" fill="#407BFF" stroke="#263238" stroke-miterlimit="10"/>
<path d="M33.7109 252.552L31.0098 246.442" stroke="#263238" stroke-width="0.5" stroke-miterlimit="10"/>
<path d="M23.7383 216.322V329.605" stroke="#263238" stroke-width="2" stroke-miterlimit="10"/>
<path d="M23.8262 312.575L20.3965 307.682" stroke="#263238" stroke-width="2" stroke-miterlimit="10"/>
<path d="M21.4412 309.149C21.4969 308.466 21.4194 307.778 21.2139 307.131C21.0083 306.483 20.6794 305.891 20.2489 305.393C19.351 304.321 14.3609 301.363 13.6985 303.281C12.9551 305.393 17.8642 310.286 21.4412 309.149Z" fill="#407BFF" stroke="#263238" stroke-miterlimit="10"/>
<path d="M21.4419 309.149L16.8125 305.208" stroke="#263238" stroke-width="0.5" stroke-miterlimit="10"/>
<path d="M23.8262 291.28L20.3965 286.396" stroke="#263238" stroke-width="2" stroke-miterlimit="10"/>
<path d="M21.4412 287.863C21.4969 287.18 21.4194 286.492 21.2139 285.844C21.0083 285.197 20.6794 284.605 20.2489 284.107C19.351 283.027 14.3609 280.037 13.6985 281.987C12.9551 284.107 17.8642 288.999 21.4412 287.863Z" fill="#407BFF" stroke="#263238" stroke-miterlimit="10"/>
<path d="M21.4419 287.863L16.8125 283.913" stroke="#263238" stroke-width="0.5" stroke-miterlimit="10"/>
<path d="M23.8262 266.294L20.3965 261.402" stroke="#263238" stroke-width="2" stroke-miterlimit="10"/>
<path d="M21.4412 262.869C21.4969 262.186 21.4194 261.498 21.2139 260.85C21.0083 260.203 20.6794 259.61 20.2489 259.113C19.351 258.033 14.3609 255.083 13.6985 256.993C12.9551 259.113 17.8642 264.005 21.4412 262.869Z" fill="#407BFF" stroke="#263238" stroke-miterlimit="10"/>
<path d="M21.4419 262.869L16.8125 258.919" stroke="#263238" stroke-width="0.5" stroke-miterlimit="10"/>
<path d="M23.8262 249.65L20.3965 244.758" stroke="#263238" stroke-width="2" stroke-miterlimit="10"/>
<path d="M21.4412 246.225C21.4959 245.543 21.4178 244.857 21.2123 244.211C21.0068 243.565 20.6784 242.974 20.2489 242.477C19.351 241.397 14.3609 238.407 13.6985 240.357C12.9551 242.477 17.8642 247.369 21.4412 246.225Z" fill="#407BFF" stroke="#263238" stroke-miterlimit="10"/>
<path d="M21.4419 246.225L16.8125 242.283" stroke="#263238" stroke-width="0.5" stroke-miterlimit="10"/>
<path d="M23.8262 232.942L20.3965 228.049" stroke="#263238" stroke-width="2" stroke-miterlimit="10"/>
<path d="M21.4412 229.516C21.4959 228.835 21.4178 228.148 21.2123 227.502C21.0068 226.856 20.6784 226.265 20.2489 225.768C19.351 224.688 14.3609 221.698 13.6985 223.649C12.9551 225.768 17.8642 230.661 21.4412 229.516Z" fill="#407BFF" stroke="#263238" stroke-miterlimit="10"/>
<path d="M21.4419 229.516L16.8125 225.575" stroke="#263238" stroke-width="0.5" stroke-miterlimit="10"/>
<path d="M23.7451 319.071L27.1749 314.179" stroke="#263238" stroke-width="2" stroke-miterlimit="10"/>
<path d="M26.1302 315.646C26.0756 314.964 26.1536 314.278 26.3591 313.631C26.5646 312.985 26.893 312.394 27.3225 311.898C28.2205 310.818 33.2105 307.827 33.8729 309.778C34.6163 311.898 29.744 316.79 26.1302 315.646Z" fill="#407BFF" stroke="#263238" stroke-miterlimit="10"/>
<path d="M26.1299 315.646L31.0316 311.495" stroke="#263238" stroke-width="0.5" stroke-miterlimit="10"/>
<path d="M23.7451 285.211L27.1749 280.327" stroke="#263238" stroke-width="2" stroke-miterlimit="10"/>
<path d="M26.1298 281.794C26.0741 281.111 26.1516 280.423 26.3572 279.775C26.5627 279.128 26.8917 278.535 27.3222 278.038C28.2201 276.958 33.2102 274.008 33.8726 275.918C34.6159 278.038 29.7436 282.93 26.1298 281.794Z" fill="#407BFF" stroke="#263238" stroke-miterlimit="10"/>
<path d="M26.1299 281.794L31.0316 277.635" stroke="#263238" stroke-width="0.5" stroke-miterlimit="10"/>
<path d="M23.7451 268.503L27.1749 263.61" stroke="#263238" stroke-width="2" stroke-miterlimit="10"/>
<path d="M26.1302 265.077C26.0756 264.396 26.1536 263.709 26.3591 263.063C26.5646 262.417 26.893 261.826 27.3225 261.329C28.2205 260.249 33.2105 257.299 33.8729 259.209C34.6163 261.329 29.744 266.222 26.1302 265.077Z" fill="#407BFF" stroke="#263238" stroke-miterlimit="10"/>
<path d="M26.1299 265.077L31.0316 260.926" stroke="#263238" stroke-width="0.5" stroke-miterlimit="10"/>
<path d="M23.7451 246.418L27.1749 241.526" stroke="#263238" stroke-width="2" stroke-miterlimit="10"/>
<path d="M26.1302 242.993C26.0756 242.311 26.1536 241.625 26.3591 240.979C26.5646 240.333 26.893 239.742 27.3225 239.245C28.2205 238.165 33.2105 235.175 33.8729 237.125C34.6163 239.245 29.744 244.137 26.1302 242.993Z" fill="#407BFF" stroke="#263238" stroke-miterlimit="10"/>
<path d="M26.1299 242.993L31.0316 238.834" stroke="#263238" stroke-width="0.5" stroke-miterlimit="10"/>
<path d="M23.7451 229.049L27.1749 224.156" stroke="#263238" stroke-width="2" stroke-miterlimit="10"/>
<path d="M26.1298 225.631C26.0741 224.949 26.1516 224.261 26.3572 223.613C26.5627 222.965 26.8917 222.373 27.3222 221.875C28.2201 220.795 33.2102 217.805 33.8726 219.756C34.6159 221.875 29.7436 226.8 26.1298 225.631Z" fill="#407BFF" stroke="#263238" stroke-miterlimit="10"/>
<path d="M26.1299 225.631L31.0316 221.473" stroke="#263238" stroke-width="0.5" stroke-miterlimit="10"/>
<path d="M23.5468 217.934C23.4879 217.253 23.5631 216.566 23.7676 215.919C23.972 215.273 24.3008 214.682 24.7318 214.186C25.6297 213.106 30.6198 210.156 31.2895 212.066C32.0329 214.178 27.1164 219.071 23.5468 217.934Z" fill="#407BFF" stroke="#263238" stroke-miterlimit="10"/>
<path d="M23.5469 217.926L28.4486 213.767" stroke="#263238" stroke-width="0.5" stroke-miterlimit="10"/>
<path d="M23.7821 218.16C23.1567 218.148 22.5407 217.992 21.9748 217.7C21.4089 217.408 20.9061 216.988 20.4996 216.467C19.6164 215.379 17.4231 209.648 19.2631 209.108C21.265 208.52 25.1953 214.388 23.7821 218.16Z" fill="#407BFF" stroke="#263238" stroke-miterlimit="10"/>
<path d="M23.782 218.16L20.5215 212.381" stroke="#263238" stroke-width="0.5" stroke-miterlimit="10"/>
<path d="M27.9989 358.984H17.0399L15.6709 328.687H29.3679L27.9989 358.984Z" fill="#263238" stroke="#263238" stroke-miterlimit="10"/>
<path d="M74.6989 127.001H8.88574V12.2671H90.3683V127.001H78.975" stroke="#263238" stroke-miterlimit="10"/>
<path d="M87.4172 16.426H11.8447V122.842H87.4172V16.426Z" stroke="#263238" stroke-miterlimit="10"/>
<path d="M26.9844 45.571C28.3218 46.9264 29.7513 48.1685 31.2605 49.2867C48.3578 61.9893 77.3562 55.9765 87.1229 74.0228" stroke="#263238" stroke-miterlimit="10"/>
<path d="M16.9151 16.8613C16.5055 21.615 16.999 26.41 18.3645 30.9446C19.73 35.4791 21.9378 39.6551 24.8491 43.2095" stroke="#263238" stroke-miterlimit="10"/>
<path d="M23.3926 75.4817C31.7315 70.6457 42.5286 67.2363 48.0559 77.0292C54.4665 88.4018 24.8499 108.463 24.8499 122.826" stroke="#263238" stroke-miterlimit="10"/>
<path d="M12.0361 83.719C14.8912 81.1927 17.9175 78.9079 21.0889 76.8841" stroke="#263238" stroke-miterlimit="10"/>
<path d="M51.4121 16.8613C51.4121 16.8613 62.4006 35.5847 87.432 30.5633" stroke="#263238" stroke-miterlimit="10"/>
<path d="M54.6942 35.2462C54.7447 35.69 54.7693 36.1369 54.7678 36.5841C54.7641 39.2746 53.8617 41.8705 52.2307 43.8825C50.5997 45.8945 48.3528 47.1834 45.9138 47.5062C43.4748 47.8291 41.0123 47.1634 38.9905 45.6349C36.9688 44.1064 35.5276 41.8206 34.9388 39.2086C34.35 36.5966 34.6542 33.839 35.794 31.4557C36.9339 29.0724 38.8307 27.2282 41.1267 26.2709C43.4226 25.3136 45.9591 25.3093 48.2577 26.2589C50.5564 27.2085 52.4583 29.0463 53.6049 31.4257" stroke="#263238" stroke-miterlimit="10"/>
<path d="M79.7921 51.4629C79.7877 52.4872 79.5062 53.4871 78.9833 54.3364C78.4603 55.1856 77.7192 55.8461 76.8537 56.2344C75.9881 56.6227 75.0369 56.7215 74.1201 56.5181C73.2034 56.3148 72.3622 55.8185 71.7029 55.0919C71.0435 54.3654 70.5956 53.4411 70.4156 52.436C70.2356 51.4308 70.3317 50.3897 70.6916 49.4443C71.0516 48.4988 71.6593 47.6914 72.438 47.124C73.2168 46.5565 74.1316 46.2545 75.0669 46.2561C75.6899 46.2561 76.3068 46.391 76.882 46.6531C77.4572 46.9151 77.9794 47.2992 78.4186 47.7831C78.8577 48.267 79.2051 48.8412 79.4409 49.4728C79.6766 50.1043 79.7959 50.7806 79.7921 51.4629V51.4629Z" stroke="#263238" stroke-miterlimit="10"/>
<path d="M79.8584 86.4191C82.5239 87.1784 85.0106 88.5524 87.1522 90.4491" stroke="#263238" stroke-miterlimit="10"/>
<path d="M61.7304 122.907C58.8314 119.995 56.8026 116.193 55.9095 111.998C55.0165 107.803 55.3008 103.41 56.7252 99.3949C58.1497 95.3796 60.6479 91.9288 63.893 89.4943C67.138 87.0597 70.9786 85.7547 74.9121 85.7501C75.2949 85.7501 75.6481 85.7501 76.0382 85.7501" stroke="#263238" stroke-miterlimit="10"/>
<path d="M226.992 358.984H344.016" stroke="#263238" stroke-miterlimit="10"/>
<path d="M1.77637 358.984H221.104" stroke="#263238" stroke-miterlimit="10"/>
<path d="M281.11 19.2546H132.563V320.61H281.11V19.2546Z" fill="white"/>
<path d="M281.11 269.219H132.563V320.61H281.11V269.219Z" fill="#DEDEDE"/>
<path d="M285.57 78.544C286.056 78.544 286.523 78.3326 286.866 77.9562C287.21 77.5799 287.403 77.0694 287.403 76.5371V56.4435C287.403 55.9112 287.21 55.4008 286.866 55.0244C286.523 54.648 286.056 54.4366 285.57 54.4366C285.455 54.4243 285.34 54.4243 285.224 54.4366V16.885C285.224 13.4498 283.978 10.1553 281.76 7.7263C279.542 5.29725 276.534 3.93262 273.397 3.93262H143.015C141.461 3.93156 139.922 4.2658 138.486 4.91625C137.05 5.5667 135.746 6.5206 134.646 7.72344C133.547 8.92629 132.676 10.3545 132.081 11.9265C131.486 13.4985 131.18 15.1834 131.18 16.885V320.175C131.18 323.612 132.427 326.909 134.646 329.339C136.866 331.77 139.876 333.135 143.015 333.135H273.397C276.534 333.133 279.543 331.767 281.761 329.336C283.979 326.906 285.224 323.611 285.224 320.175V135.665C285.34 135.678 285.455 135.678 285.57 135.665C286.057 135.663 286.523 135.45 286.867 135.072C287.21 134.695 287.403 134.183 287.403 133.65V113.597C287.403 113.065 287.21 112.554 286.866 112.178C286.523 111.801 286.056 111.59 285.57 111.59C285.454 111.591 285.338 111.605 285.224 111.63V107.085C285.338 107.11 285.454 107.124 285.57 107.125C286.056 107.123 286.521 106.911 286.864 106.535C287.207 106.159 287.401 105.649 287.403 105.118V85.0162C287.401 84.4846 287.207 83.9754 286.864 83.5994C286.521 83.2235 286.056 83.0114 285.57 83.0093C285.454 83.0103 285.338 83.0238 285.224 83.0496V78.4957C285.338 78.5242 285.454 78.5404 285.57 78.544V78.544ZM278.372 313.598H138.032V26.283H278.372V313.598Z" fill="#263238"/>
<path d="M273.596 29.2652H261.96V36.2532H273.596V29.2652Z" stroke="#263238" stroke-width="0.821067" stroke-linecap="round" stroke-linejoin="round"/>
<path d="M271.035 29.2652H261.96V36.2532H271.035V29.2652Z" fill="#263238" stroke="#263238" stroke-width="0.725073" stroke-linecap="round" stroke-linejoin="round"/>
<path d="M275.215 31.2238H273.573V34.3027H275.215V31.2238Z" fill="#263238" stroke="#263238" stroke-width="0.725073" stroke-linecap="round" stroke-linejoin="round"/>
<path d="M143.324 31.4333H141.189V35.4392H143.324V31.4333Z" fill="#263238" stroke="#263238" stroke-width="0.883086" stroke-linecap="round" stroke-linejoin="round"/>
<path d="M146.68 30.0309H144.546V35.4391H146.68V30.0309Z" fill="#263238" stroke="#263238" stroke-width="0.883086" stroke-linecap="round" stroke-linejoin="round"/>
<path d="M150.029 28.3625H147.895V35.4392H150.029V28.3625Z" fill="#263238" stroke="#263238" stroke-width="0.883086" stroke-linecap="round" stroke-linejoin="round"/>
<path d="M275.06 40.1382H140.291V78.9229H275.06V40.1382Z" fill="#407BFF"/>
<path d="M174.354 45.7238V74.1997" stroke="white" stroke-miterlimit="10"/>
<path d="M208.695 45.7238V74.1997" stroke="white" stroke-miterlimit="10"/>
<path d="M243.044 45.7238V74.1997" stroke="white" stroke-miterlimit="10"/>
<path opacity="0.15" d="M284.01 135.665C284.125 135.678 284.241 135.678 284.356 135.665C284.843 135.663 285.309 135.45 285.653 135.072C285.996 134.695 286.189 134.183 286.189 133.65V126.453L277.158 143.886V313.598H189.302L179.152 333.135H272.175C275.314 333.135 278.324 331.77 280.544 329.339C282.763 326.909 284.01 323.612 284.01 320.175V135.665Z" fill="white"/>
<path d="M202.505 212.639V203.426H206.707V198.792H202.52C202.52 197.252 202.52 195.705 202.52 194.165H210.947V189.563H215.157V194.141H219.381V184.888H232.041V189.491H236.228V184.888H232.026V180.246H223.584V171.073H210.917V175.684H202.52V184.929H206.7V189.539H202.498V194.157H198.288V189.531H185.636V184.929H198.288V147.949H202.52C202.52 152.398 202.52 156.848 202.52 161.297V161.796H206.737V152.584H210.939V161.812H215.179V166.415H236.273V171.025H240.497V175.676H236.295V180.31H240.482V189.563H244.714V198.8H240.527V208.02H244.656V212.639H253.083V217.249H240.482V226.478H236.273V221.868H227.809V217.249H223.599V212.639H231.996V208.02H210.954V212.615H202.505V212.639ZM227.809 198.776V194.181H223.621V198.768H227.823V203.37H236.228V198.776H227.809ZM219.359 198.776H215.216V203.346H219.389L219.359 198.776ZM227.831 175.619H232.004V171.041H227.831V175.619Z" fill="#263238"/>
<path d="M164.534 161.78V129.476H194.026V161.78H164.534ZM168.766 134.11V157.17H189.816V134.11H168.766Z" fill="#263238"/>
<path d="M253.105 161.788H223.613V129.492H253.105V161.788ZM248.895 134.11H227.845V157.162H248.895V134.11Z" fill="#263238"/>
<path d="M164.542 194.165H194.041V226.47H164.542V194.165ZM189.824 198.8H168.767V221.859H189.824V198.8Z" fill="#263238"/>
<path d="M202.498 147.949V138.704H198.288V129.484H219.345V138.688H215.216V143.315H219.389V152.535H215.187V147.949H210.947V143.339H206.737V147.933H202.491L202.498 147.949ZM206.73 138.672H210.91V134.11H206.73V138.672Z" fill="#263238"/>
<path d="M185.614 171.041V175.66H194.041V180.27H181.404V189.507H164.55V180.318H168.723V184.888H177.187V171.041H185.621H185.614Z" fill="#263238"/>
<path d="M202.491 212.631V217.249H206.708V221.859H210.91V226.478H198.288V212.639H202.476L202.491 212.631Z" fill="#263238"/>
<path d="M177.187 171.041H168.752V175.643H164.55V166.455H177.172V171.049L177.187 171.041Z" fill="#263238"/>
<path d="M253.105 180.27H248.925V171.057H244.715V166.447H253.105V180.27Z" fill="#263238"/>
<path d="M185.621 171.057V166.455H194.033V171.041H185.613L185.621 171.057Z" fill="#263238"/>
<path d="M244.699 189.539V184.937H248.887V189.523H244.655L244.699 189.539Z" fill="#263238"/>
<path d="M248.932 194.173H253.105V198.751H248.932V194.173Z" fill="#263238"/>
<path d="M215.157 161.812V157.21H219.352V161.796H215.149L215.157 161.812Z" fill="#263238"/>
<path d="M202.505 203.426H198.288V198.816H202.476V203.426H202.505Z" fill="#263238"/>
<path d="M244.7 208.02V203.426H248.888V208.012H244.7V208.02Z" fill="#263238"/>
<path d="M240.468 175.676H244.656V180.286H240.468V175.651V175.676Z" fill="#263238"/>
<path d="M219.352 221.859H215.172V217.289H219.352V221.859Z" fill="#263238"/>
<path d="M227.809 221.868V226.47H223.621V221.884H227.824L227.809 221.868Z" fill="#263238"/>
<path d="M253.105 226.486H248.932V221.908H253.105V226.486Z" fill="#263238"/>
<path d="M219.382 184.888H215.216V180.302H219.411V184.888H219.382Z" fill="#263238"/>
<path d="M185.592 152.543H172.977V138.729H185.592V152.543Z" fill="#263238"/>
<path d="M232.048 152.535V138.721H244.656V152.535H232.048Z" fill="#263238"/>
<path d="M172.977 217.233V203.426H185.592V217.241L172.977 217.233Z" fill="#263238"/>
<path d="M176.789 118.53H158.315V140.848" stroke="#407BFF" stroke-width="2" stroke-miterlimit="10"/>
<path d="M243.971 118.53H262.437V140.848" stroke="#407BFF" stroke-width="2" stroke-miterlimit="10"/>
<path d="M176.789 236.061H158.315V213.743" stroke="#407BFF" stroke-width="2" stroke-miterlimit="10"/>
<path d="M243.971 236.061H262.437V213.743" stroke="#407BFF" stroke-width="2" stroke-miterlimit="10"/>
<path d="M120.581 123.366H114.45C113.365 123.366 112.485 124.33 112.485 125.518V144.322C112.485 145.511 113.365 146.474 114.45 146.474H120.581C121.667 146.474 122.546 145.511 122.546 144.322V125.518C122.546 124.33 121.667 123.366 120.581 123.366Z" fill="#263238" stroke="#263238" stroke-miterlimit="10"/>
<path d="M121.649 125.406H113.369V144.427H121.649V125.406Z" fill="white" stroke="#263238" stroke-miterlimit="10"/>
<path d="M32.4385 236.609C35.3915 236.591 38.2815 235.673 40.7847 233.958C40.6228 239.1 40.4977 242.993 40.4977 242.993C40.4977 242.993 41.3073 244.54 41.7121 245.209C42.1169 245.878 45.554 248.087 45.9588 250.086C46.3636 252.085 48.1668 253.189 47.9828 256.066C47.7988 258.944 45.554 255.84 45.9588 256.509C46.3636 257.178 47.578 259.387 47.578 261.386C47.578 263.385 43.7361 263.377 42.3156 262.047C40.8951 260.717 36.251 257.614 35.8462 254.736L34.2638 248.288L32.4385 236.609Z" fill="white" stroke="#263238" stroke-miterlimit="10"/>
<path d="M40.8438 252.592L41.83 257.428C41.83 257.428 45.0169 260.112 45.2598 261.998" fill="white"/>
<path d="M40.8438 252.592L41.83 257.428C41.83 257.428 45.0169 260.112 45.2598 261.998" stroke="#263238" stroke-miterlimit="10"/>
<path d="M45.9513 256.509L44.5234 253.398" stroke="#263238" stroke-miterlimit="10"/>
<path d="M56.7487 354.769C56.7487 354.769 55.5932 365.142 56.4911 366.408C56.9974 367.205 57.6421 367.885 58.3885 368.409C59.1348 368.933 59.9682 369.291 60.8409 369.462C62.887 369.744 66.3462 368.479 66.3462 368.479C68.6807 369.165 71.1062 369.402 73.5148 369.18C77.1948 368.761 79.6531 367.222 79.9107 365.255C80.1683 363.288 76.9667 362.458 75.1782 360.355C73.3897 358.251 70.534 354.527 70.534 354.527L69.798 351.803C69.798 351.803 65.4483 354.221 62.6367 354.326C61.0467 354.43 59.4511 354.289 57.8969 353.907L56.7487 354.769Z" fill="white" stroke="#263238" stroke-miterlimit="10"/>
<path d="M79.91 365.279C79.9391 365.049 79.919 364.814 79.8511 364.594C79.0047 364.981 77.9228 365.448 76.5832 365.98C72.7413 367.528 70.8204 366.262 68.9068 366.262C66.9932 366.262 66.8533 368.503 61.4805 366.964C57.9698 365.956 56.6524 364.659 56.1519 363.869C56.0814 364.732 56.1974 365.602 56.4904 366.408C56.9967 367.205 57.6415 367.885 58.3878 368.409C59.1342 368.933 59.9675 369.291 60.8402 369.462C62.8863 369.744 66.3455 368.479 66.3455 368.479C68.68 369.165 71.1055 369.402 73.5141 369.18C77.2236 368.785 79.6524 367.246 79.91 365.279Z" fill="white" stroke="#263238" stroke-miterlimit="10"/>
<path d="M49.9259 225.994C49.9259 225.994 44.7739 244.935 46.6139 258.234C48.4539 271.533 57.2859 296.519 57.2859 296.519C57.2859 296.519 56.1819 305.788 56.1819 309.012C56.1819 312.236 53.6059 318.281 55.4459 324.729C57.2859 331.177 57.2859 348.103 57.2859 349.312C57.2859 350.521 56.5499 356.969 56.5499 356.969C56.5499 356.969 58.0219 359.387 63.5419 359.387C69.0619 359.387 70.5339 354.551 70.5339 354.551C70.5339 354.551 76.0539 318.684 76.0539 313.042C76.0539 307.4 81.9419 286.444 84.1499 277.981C85.6265 272.155 87.7654 266.555 90.5163 261.313C91.9883 258.492 91.1419 224.382 91.1419 224.382L49.1899 220.352L49.9259 225.994Z" fill="#737373" stroke="#263238" stroke-miterlimit="10"/>
<path d="M78.8876 357.437C78.8876 357.437 84.3929 359.814 87.0793 361.217C89.7657 362.619 91.5541 362.756 91.5541 365.005C91.5541 367.254 86.6965 369.486 83.7525 370.051C80.8085 370.615 76.0687 370.47 75.5609 370.607C75.053 370.744 65.4482 372.291 64.3001 369.624C63.1519 366.956 64.4252 357.856 64.4252 357.856C69.2246 358.753 74.1382 358.611 78.8876 357.437V357.437Z" fill="white" stroke="#263238" stroke-miterlimit="10"/>
<path d="M75.5604 370.607C76.0683 370.47 80.8081 370.607 83.7521 370.051C86.6961 369.495 91.5537 367.246 91.5537 365.005C91.5556 364.71 91.5159 364.416 91.436 364.135C90.1933 364.928 88.9079 365.639 87.5867 366.262C84.0024 367.947 79.2699 369.067 72.1307 368.93C69.3644 368.924 66.6098 368.536 63.9316 367.778C63.9726 368.412 64.1068 369.036 64.3291 369.624C65.4478 372.291 75.0452 370.752 75.5604 370.607Z" fill="white" stroke="#263238" stroke-miterlimit="10"/>
<path d="M91.51 227.606C91.51 227.606 93.718 260.249 89.302 284.832C84.886 309.415 77.526 342.864 77.158 344.476C76.79 346.088 79.734 350.521 79.734 350.521V356.969C79.734 356.969 77.158 359.79 71.27 360.596C65.382 361.402 63.542 359.387 63.542 359.387C63.542 359.387 62.07 348.506 62.07 340.849C62.07 333.192 63.542 306.997 63.542 306.997C63.542 306.997 66.854 280.399 66.486 276.369C66.118 272.339 65.014 259.846 65.014 259.846L59.126 252.189" fill="#737373"/>
<path d="M91.51 227.606C91.51 227.606 93.718 260.249 89.302 284.832C84.886 309.415 77.526 342.864 77.158 344.476C76.79 346.088 79.734 350.521 79.734 350.521V356.969C79.734 356.969 77.158 359.79 71.27 360.596C65.382 361.402 63.542 359.387 63.542 359.387C63.542 359.387 62.07 348.506 62.07 340.849C62.07 333.192 63.542 306.997 63.542 306.997C63.542 306.997 66.854 280.399 66.486 276.369C66.118 272.339 65.014 259.846 65.014 259.846L59.126 252.189" stroke="#263238" stroke-miterlimit="10"/>
<path d="M29.6488 221.465L41.226 219.24C41.1745 220.957 41.5057 210.108 41.5057 209.302C41.5057 207.529 45.3476 196.406 45.3476 196.406C45.3476 196.406 48.38 210.817 48.38 212.591C48.38 214.364 47.1656 227.905 48.7848 229.654C50.404 231.403 56.0712 234.973 68.62 234.53C81.1688 234.087 90.4792 232.974 92.908 230.314C95.3368 227.655 92.5032 219.458 92.2971 218.353C92.091 217.249 95.5355 188.209 95.5355 188.209C95.5355 188.209 109.093 203.725 117.189 201.508C125.285 199.292 121.443 164.738 121.443 164.738L121.847 154.768C121.847 154.768 124.475 147.458 124.475 146.345C124.475 145.233 121.847 137.262 121.847 137.262C121.847 137.262 120.228 135.706 119.213 139.478C118.643 141.504 118.237 143.581 117.998 145.684C117.998 145.684 115.569 147.675 115.79 150.561C115.912 152.301 116.251 154.015 116.799 155.655L111.323 175.216C111.323 175.216 105.251 167.68 104.846 166.35C104.441 165.02 104.64 160.144 99.5835 157.259C94.5272 154.373 84.2011 154.156 84.2011 154.156L55.6664 154.381C55.6664 154.381 42.308 155.671 39.3124 158.548C36.3169 161.426 26.9697 198.002 26.9697 203.539C26.9697 205.272 27.794 210.64 28.9496 217.281L29.6488 221.465Z" fill="white" stroke="#263238" stroke-miterlimit="10"/>
<path d="M121.848 137.278C121.848 137.278 121.237 142.815 121.642 143.927C122.222 145.854 122.361 147.908 122.046 149.908" stroke="#263238" stroke-miterlimit="10"/>
<path d="M117.189 201.548C125.285 199.332 121.443 164.754 121.443 164.754L121.531 162.522C120.646 161.787 119.621 161.283 118.532 161.047C117.443 160.811 116.319 160.85 115.246 161.16L111.323 175.216C111.323 175.216 105.251 167.68 104.846 166.35C104.441 165.02 104.64 160.144 99.5835 157.259C94.5272 154.373 84.2011 154.156 84.2011 154.156L55.6664 154.381C55.6664 154.381 42.308 155.671 39.3124 158.548C36.3169 161.426 26.9697 198.002 26.9697 203.539C26.9697 206.828 29.9579 223.222 32.475 236.585C35.4133 236.567 38.2896 235.658 40.7844 233.958C41.0788 224.374 41.5204 210.455 41.5204 209.302C41.5204 207.529 45.3624 196.406 45.3624 196.406C45.3624 196.406 48.3947 210.817 48.3947 212.591C48.3947 214.364 47.1803 227.905 48.7995 229.654C50.4187 231.403 56.0859 234.973 68.6347 234.53C81.1835 234.087 90.4939 232.974 92.9227 230.314C95.3515 227.655 92.5179 219.458 92.3118 218.353C92.1057 217.249 95.5502 188.209 95.5502 188.209C95.5502 188.209 109.093 203.765 117.189 201.548Z" fill="#407BFF" stroke="#263238" stroke-miterlimit="10"/>
<path d="M41.373 184.252L45.3474 196.446L37.1631 181.124" stroke="#263238" stroke-miterlimit="10"/>
<path d="M39.1289 177.368L40.5347 181.68" stroke="#263238" stroke-miterlimit="10"/>
<path d="M67.1553 185.114C68.9438 189.515 71.5713 195.036 74.6993 198.59" stroke="#263238" stroke-miterlimit="10"/>
<path d="M64.6455 178.174C64.6455 178.174 65.1975 179.988 66.1838 182.623" stroke="#263238" stroke-miterlimit="10"/>
<path d="M69.0615 192.948C69.0615 192.948 73.4775 202.62 75.6855 204.498" stroke="#263238" stroke-miterlimit="10"/>
<path d="M102.461 181.221L104.139 179.512" stroke="#263238" stroke-miterlimit="10"/>
<path d="M99.723 178.706L95.5352 188.249L100.937 182.769" stroke="#263238" stroke-miterlimit="10"/>
<path d="M118.859 184.082C118.616 182.204 111.322 175.176 111.322 175.176C111.322 175.176 118.859 178.44 120.824 181.398" stroke="#263238" stroke-miterlimit="10"/>
<path d="M87.0343 125.083C87.0343 125.083 87.4391 130.628 88.05 131.531C88.6608 132.434 89.0583 139.285 88.05 141.284C87.0416 143.283 86.4308 145.717 85.842 146.378C85.2532 147.039 83.0084 147.047 82.162 147.047C81.3156 147.047 72.248 146.603 72.248 146.603L72.4541 132.635C72.4541 132.635 74.6916 122.206 87.0343 125.083Z" fill="white" stroke="#263238" stroke-miterlimit="10"/>
<path d="M70.8504 109.576C70.8504 109.576 62.5483 112.453 60.7304 120.408C58.9124 128.364 64.7784 137.471 64.7784 137.471C64.7784 137.471 66.3976 143.919 67.8107 145.233C69.2238 146.547 74.891 145.233 76.7163 144.79C78.5416 144.346 82.6043 132.377 82.6043 132.377C82.6043 132.377 82.6043 135.255 83.8187 135.255C85.0331 135.255 84.8344 131.491 84.8344 130.822C84.8344 130.153 90.5016 125.502 90.5016 117.531C90.5016 109.56 84.2088 106.029 78.3208 106.473C72.4328 106.916 70.8504 109.576 70.8504 109.576Z" fill="#263238" stroke="#263238" stroke-miterlimit="10"/>
<path d="M88.0507 153.672C88.0507 153.672 86.8363 149.021 86.2254 148.36C85.6145 147.699 81.7726 145.032 75.5019 144.588C69.2312 144.145 59.9208 144.371 59.1112 144.814C58.3016 145.257 58.0955 149.021 58.0955 149.021C58.0955 149.021 55.468 151.681 54.8571 153.237C54.2462 154.792 53.6427 155.445 59.2731 160.547C64.9035 165.649 67.98 167.64 73.8459 166.084C79.7118 164.529 88.2126 155.227 88.2126 155.227L88.0507 153.672Z" fill="#407BFF" stroke="#263238" stroke-miterlimit="10"/>
<path d="M73.5732 156.815C77.5568 155.324 81.3895 153.388 85.0107 151.036" stroke="#263238" stroke-miterlimit="10"/>
<path d="M58.0947 149.908C58.0947 149.908 61.7747 157.887 68.2147 157.887C69.0925 157.876 69.9674 157.773 70.8275 157.581" stroke="#263238" stroke-miterlimit="10"/>
</svg>
